<?xml version="1.0" standalone="no"?>
<!DOCTYPE svg PUBLIC "-//W3C//DTD SVG 20010904//EN"
 "http://www.w3.org/TR/2001/REC-SVG-20010904/DTD/svg10.dtd">
<svg version="1.0" xmlns="http://www.w3.org/2000/svg"
 width="558.000000pt" height="314.000000pt" viewBox="0 0 558.000000 314.000000"
 preserveAspectRatio="xMidYMid meet">
<metadata>
Created by potrace 1.15, written by Peter Selinger 2001-2017
</metadata>
<g transform="translate(0.000000,314.000000) scale(0.100000,-0.100000)"
fill="#000000" stroke="none">
<path d="M1542 2998 c3 -108 7 -129 29 -173 22 -42 30 -50 52 -49 22 1 25 -2
16 -12 -6 -8 -16 -11 -23 -7 -6 3 5 -11 24 -31 19 -21 58 -50 85 -64 l50 -27
613 -5 612 -5 0 109 c0 110 -15 190 -33 179 -6 -3 -7 -1 -3 5 7 12 -51 98 -64
95 -5 -2 -12 6 -15 17 -4 11 -11 18 -16 15 -5 -4 -9 -1 -9 5 0 6 -26 23 -57
38 l-58 27 -604 3 -603 3 4 -123z"/>
<path d="M1045 3014 c-16 -79 -40 -137 -62 -147 -12 -5 -20 -13 -18 -17 2 -4
-1 -7 -8 -8 -72 -9 -151 -42 -99 -42 31 0 91 -20 107 -36 8 -9 15 -12 15 -7 1
23 46 -67 60 -121 18 -63 21 -61 34 14 10 59 42 99 99 125 28 14 62 25 75 25
40 0 23 16 -30 27 -39 8 -55 8 -61 -1 -6 -7 -7 -6 -4 4 2 8 -12 27 -31 42 -19
16 -32 28 -28 28 4 0 0 13 -9 30 -8 16 -15 42 -15 57 0 15 -4 35 -9 42 -8 12
-11 8 -16 -15z"/>
<path d="M3516 2828 c-4 -29 -9 -61 -10 -70 -1 -10 -6 -21 -11 -25 -4 -5 -5
-1 -1 7 4 8 -2 4 -13 -10 -11 -14 -21 -29 -21 -34 0 -5 -3 -6 -6 -3 -4 4 -19
-2 -34 -13 -16 -11 -42 -20 -58 -20 -40 0 -50 -18 -15 -26 58 -13 69 -17 99
-40 40 -30 74 -98 74 -149 0 -71 27 -6 33 82 1 11 5 19 8 17 3 -2 15 10 27 25
20 27 70 52 137 66 23 5 26 9 15 15 -9 5 -29 10 -45 12 -17 2 -40 9 -53 16
-12 7 -28 10 -34 6 -6 -4 -8 -3 -5 3 4 6 -2 18 -12 27 -11 10 -22 29 -26 43
-5 22 -8 23 -23 11 -15 -11 -16 -11 -4 3 13 17 6 109 -8 109 -4 0 -10 -24 -14
-52z"/>
<path d="M3840 2138 c-25 -17 -85 -59 -135 -93 -49 -34 -160 -110 -247 -168
-86 -58 -177 -121 -203 -139 l-47 -33 -892 -5 c-971 -5 -911 -2 -942 -61 -11
-21 -14 -71 -14 -209 l0 -180 998 0 997 0 56 38 c31 20 121 82 200 137 78 55
153 106 166 113 13 7 21 18 17 24 -4 7 -3 8 4 4 16 -10 54 12 46 27 -4 7 -4 9
1 5 4 -4 47 20 95 53 48 32 95 59 104 59 10 0 15 3 13 8 -3 4 133 6 301 5 205
-2 316 1 334 8 50 20 57 43 59 210 4 245 36 229 -473 229 l-393 -1 -45 -31z"/>
<path d="M650 728 c-48 -18 -50 -36 -48 -344 2 -234 6 -288 16 -286 8 1 11 -2
8 -7 -10 -15 33 -39 57 -33 45 10 57 31 57 99 l0 63 44 0 c39 0 50 -6 97 -49
29 -27 58 -47 64 -44 5 4 7 2 2 -2 -4 -5 5 -21 20 -37 32 -33 74 -37 105 -8
33 31 26 75 -19 120 -20 21 -42 36 -48 33 -5 -4 -7 -3 -3 2 4 4 3 14 -4 22 -9
11 -8 13 3 11 8 -2 13 3 11 10 -1 8 1 11 6 8 14 -9 47 28 73 81 32 64 32 160
1 219 -31 61 -86 113 -107 102 -2 -2 -11 6 -19 17 -13 18 -29 21 -156 25 -78
3 -150 2 -160 -2z m260 -133 c-9 -11 -7 -15 13 -20 18 -5 31 -19 41 -46 20
-49 20 -63 0 -105 -23 -49 -59 -64 -149 -64 l-76 0 3 118 3 117 70 2 c39 1 76
2 83 2 7 1 10 6 6 13 -4 7 -3 8 5 4 9 -6 9 -11 1 -21z"/>
<path d="M210 723 c-63 -20 -133 -71 -126 -90 3 -8 1 -11 -4 -8 -5 3 -19 -14
-32 -37 -18 -36 -22 -63 -26 -175 -3 -102 -1 -142 11 -178 64 -186 292 -238
432 -98 26 26 34 41 30 57 -5 15 -4 17 3 8 19 -28 32 51 32 197 0 129 -2 151
-21 186 -27 52 -80 107 -96 101 -7 -3 -12 0 -10 6 5 25 -140 49 -193 31z m123
-139 c56 -27 67 -57 67 -182 0 -126 -9 -160 -51 -191 -31 -23 -31 -23 -141 -9
-9 1 -16 5 -15 8 1 3 -7 19 -16 37 -13 25 -17 58 -17 142 0 119 9 156 43 180
48 35 80 39 130 15z"/>
<path d="M1164 712 c-13 -11 -20 -29 -20 -52 0 -53 26 -69 114 -70 l72 0 0
-240 c0 -205 2 -244 16 -265 22 -33 78 -35 105 -2 17 20 18 42 19 265 l0 242
74 0 c71 0 76 1 95 29 12 16 21 37 21 48 -1 22 -24 55 -33 46 -4 -3 -7 -1 -7
5 0 9 -58 12 -217 12 -192 -1 -220 -3 -239 -18z"/>
<path d="M1742 710 c-22 -20 -22 -25 -22 -313 0 -330 1 -333 66 -335 64 -3 74
15 74 135 l0 103 120 0 120 0 0 -103 c0 -88 3 -106 18 -120 29 -26 77 -22 101
9 20 26 21 39 21 306 0 266 -1 281 -20 309 -17 23 -27 28 -55 25 -57 -4 -64
-24 -65 -163 l0 -123 -120 0 -120 0 0 125 c0 115 -2 126 -22 145 -12 11 -34
20 -48 20 -14 0 -36 -9 -48 -20z"/>
<path d="M2465 711 c-51 -23 -110 -76 -100 -90 3 -6 1 -10 -5 -9 -7 2 -20 -13
-31 -32 -16 -30 -19 -56 -19 -182 0 -112 4 -157 16 -188 9 -23 21 -37 27 -33
5 3 7 1 3 -5 -8 -14 22 -44 36 -36 6 4 8 2 4 -4 -8 -14 44 -54 61 -47 8 2 12
1 9 -4 -9 -14 21 -21 95 -21 55 0 80 5 120 26 36 18 49 30 45 40 -3 8 -1 12 4
9 13 -8 52 33 44 47 -4 6 -3 8 4 4 23 -14 37 68 37 214 0 129 -2 149 -21 185
-12 22 -27 39 -34 37 -6 -1 -9 2 -6 6 10 17 -44 64 -95 83 -62 24 -142 24
-194 0z m101 -100 c-4 -5 7 -12 24 -16 16 -4 43 -19 60 -35 l31 -29 -4 -143
c-5 -149 -7 -171 -15 -163 -3 3 -12 -1 -21 -9 -45 -38 -116 -36 -161 6 -14 13
-27 22 -30 21 -3 -1 -6 56 -8 125 -3 146 9 185 67 214 19 9 39 22 44 27 13 13
20 14 13 2z"/>
</g>
</svg>
