<svg id="svg" version="1.1" xmlns="http://www.w3.org/2000/svg" xmlns:xlink="http://www.w3.org/1999/xlink" width="400" height="402.96296296296293" viewBox="0, 0, 400,402.96296296296293"><g id="svgg"><path id="path0" d="M199.444 46.513 C 198.833 46.595,196.500 46.844,194.259 47.066 C 109.408 55.466,48.812 136.782,64.095 221.739 C 79.324 306.400,163.513 360.293,247.593 339.206 C 322.709 320.367,370.849 245.160,357.016 168.261 C 346.228 108.290,299.496 60.921,239.259 48.900 C 229.354 46.923,206.568 45.557,199.444 46.513 M227.407 52.013 C 310.610 62.693,366.788 138.747,352.178 220.926 C 341.834 279.105,294.490 326.385,236.296 336.651 C 135.160 354.492,48.404 264.839,69.835 164.630 C 85.233 92.634,155.063 42.726,227.407 52.013 M194.259 113.316 C 193.852 113.485,193.102 114.071,192.593 114.619 L 191.667 115.615 191.667 195.023 L 191.667 274.430 192.877 275.641 L 194.088 276.852 199.444 276.852 L 204.801 276.852 206.011 275.641 L 207.222 274.430 207.319 223.882 L 207.415 173.333 216.948 173.325 C 228.417 173.315,230.055 172.843,231.457 169.143 C 232.006 167.694,232.006 118.603,231.457 117.154 C 230.895 115.671,229.677 114.454,227.963 113.663 C 226.363 112.924,195.963 112.612,194.259 113.316 M227.037 118.148 C 227.669 118.780,227.779 119.392,227.789 122.315 C 227.807 127.401,227.809 158.427,227.792 163.241 C 227.771 169.286,228.541 168.889,216.852 168.889 L 207.407 168.889 207.407 143.148 L 207.407 117.407 216.852 117.407 C 225.802 117.407,226.335 117.446,227.037 118.148 " stroke="none" fill="#6126b5" fill-rule="evenodd"></path><path id="path1" d="M202.212 51.486 C 87.668 58.587,26.847 190.240,95.878 281.652 C 162.886 370.385,301.270 352.250,343.721 249.173 C 383.658 152.198,306.919 44.995,202.212 51.486 M229.421 114.216 C 232.320 116.428,232.206 115.239,232.206 143.148 C 232.206 171.057,232.320 169.868,229.422 172.080 L 228.022 173.148 217.715 173.257 L 207.407 173.366 207.407 223.942 L 207.407 274.519 206.148 275.778 L 204.889 277.037 199.444 277.037 L 194.000 277.037 192.741 275.778 L 191.481 274.519 191.481 195.000 L 191.481 115.481 192.752 114.211 L 194.022 112.941 211.022 113.045 L 228.021 113.148 229.421 114.216 M207.407 143.148 L 207.407 168.889 216.584 168.889 C 228.164 168.889,227.407 169.265,227.407 163.506 L 227.407 159.277 221.110 159.175 C 217.227 159.113,214.813 158.932,214.813 158.704 C 214.813 158.475,217.227 158.294,221.110 158.232 L 227.407 158.131 227.407 153.148 L 227.407 148.166 221.019 148.064 C 215.631 147.979,214.630 147.876,214.630 147.407 C 214.630 146.939,215.631 146.836,221.019 146.751 L 227.407 146.649 227.407 142.407 L 227.407 138.166 221.019 138.064 C 215.631 137.979,214.630 137.876,214.630 137.407 C 214.630 136.939,215.631 136.836,221.019 136.751 L 227.407 136.649 227.407 131.852 L 227.407 127.055 221.019 126.953 C 215.631 126.868,214.630 126.765,214.630 126.296 C 214.630 125.828,215.631 125.725,221.019 125.639 L 227.407 125.538 227.407 122.049 C 227.407 117.154,227.999 117.407,216.584 117.407 L 207.407 117.407 207.407 143.148 " stroke="none" fill="#fbfbfc" fill-rule="evenodd"></path><path id="path2" d="M214.905 125.802 C 213.468 126.381,215.586 126.667,221.318 126.667 C 226.813 126.667,227.778 126.584,227.778 126.111 C 227.778 125.561,216.192 125.283,214.905 125.802 M215.070 136.905 C 214.338 137.637,215.377 137.778,221.512 137.778 C 226.706 137.778,228.175 137.674,228.056 137.315 C 227.888 136.809,215.555 136.420,215.070 136.905 M215.070 146.905 C 214.338 147.637,215.377 147.778,221.512 147.778 C 226.706 147.778,228.175 147.674,228.056 147.315 C 227.888 146.809,215.555 146.420,215.070 146.905 M214.815 158.712 C 214.815 159.469,227.803 159.370,228.056 158.611 C 228.175 158.252,226.706 158.148,221.512 158.148 C 215.761 158.148,214.815 158.228,214.815 158.712 " stroke="none" fill="#bea1e1" fill-rule="evenodd"></path><path id="path3" d="M205.097 51.373 C 205.558 51.462,206.224 51.458,206.578 51.366 C 206.932 51.273,206.556 51.200,205.741 51.205 C 204.926 51.209,204.636 51.284,205.097 51.373 M214.727 51.373 C 215.187 51.462,215.854 51.458,216.208 51.366 C 216.562 51.273,216.185 51.200,215.370 51.205 C 214.556 51.209,214.266 51.284,214.727 51.373 M108.690 93.426 L 106.852 95.370 108.796 93.532 C 109.866 92.522,110.741 91.647,110.741 91.588 C 110.741 91.312,110.398 91.619,108.690 93.426 M312.037 93.333 C 313.040 94.352,313.944 95.185,314.046 95.185 C 314.148 95.185,313.411 94.352,312.407 93.333 C 311.404 92.315,310.500 91.481,310.398 91.481 C 310.296 91.481,311.034 92.315,312.037 93.333 M214.768 126.769 C 214.926 126.926,217.876 127.009,221.324 126.953 L 227.593 126.850 221.036 126.666 C 217.430 126.564,214.609 126.611,214.768 126.769 M214.610 137.069 C 214.048 137.979,215.297 138.162,221.324 138.055 L 227.593 137.944 221.164 137.861 C 215.624 137.789,214.765 137.701,214.949 137.222 C 215.196 136.579,214.975 136.479,214.610 137.069 M214.610 147.069 C 214.048 147.979,215.297 148.162,221.324 148.055 L 227.593 147.944 221.164 147.861 C 215.624 147.789,214.765 147.701,214.949 147.222 C 215.196 146.579,214.975 146.479,214.610 147.069 M66.760 189.815 C 66.764 190.630,66.840 190.919,66.929 190.459 C 67.017 189.998,67.014 189.331,66.921 188.977 C 66.828 188.623,66.756 189.000,66.760 189.815 M354.167 190.185 C 354.172 191.000,354.247 191.290,354.336 190.829 C 354.425 190.368,354.421 189.702,354.329 189.348 C 354.236 188.993,354.163 189.370,354.167 190.185 M66.760 199.815 C 66.764 200.630,66.840 200.919,66.929 200.459 C 67.017 199.998,67.014 199.331,66.921 198.977 C 66.828 198.623,66.756 199.000,66.760 199.815 M354.167 199.815 C 354.172 200.630,354.247 200.919,354.336 200.459 C 354.425 199.998,354.421 199.331,354.329 198.977 C 354.236 198.623,354.163 199.000,354.167 199.815 M108.704 296.667 C 109.707 297.685,110.611 298.519,110.713 298.519 C 110.815 298.519,110.077 297.685,109.074 296.667 C 108.071 295.648,107.167 294.815,107.065 294.815 C 106.963 294.815,107.701 295.648,108.704 296.667 M312.023 296.759 L 310.185 298.704 312.130 296.866 C 313.199 295.855,314.074 294.980,314.074 294.921 C 314.074 294.645,313.731 294.952,312.023 296.759 M205.097 338.780 C 205.558 338.869,206.224 338.866,206.578 338.773 C 206.932 338.680,206.556 338.608,205.741 338.612 C 204.926 338.616,204.636 338.692,205.097 338.780 M214.727 338.780 C 215.187 338.869,215.854 338.866,216.208 338.773 C 216.562 338.680,216.185 338.608,215.370 338.612 C 214.556 338.616,214.266 338.692,214.727 338.780 " stroke="none" fill="#d8c9ec" fill-rule="evenodd"></path><path id="path4" d="M227.541 122.222 C 227.541 124.157,227.603 124.949,227.680 123.981 C 227.756 123.014,227.756 121.431,227.680 120.463 C 227.603 119.495,227.541 120.287,227.541 122.222 M232.027 143.148 C 232.027 156.593,232.073 162.039,232.129 155.251 C 232.186 148.463,232.186 137.463,232.129 130.806 C 232.073 124.150,232.027 129.704,232.027 143.148 M227.632 126.512 C 227.307 127.358,227.355 136.591,227.685 136.794 C 227.838 136.888,227.963 134.481,227.963 131.445 C 227.963 128.409,227.939 125.926,227.910 125.926 C 227.881 125.926,227.756 126.190,227.632 126.512 M227.550 142.222 C 227.550 144.769,227.609 145.810,227.682 144.537 C 227.754 143.264,227.754 141.181,227.682 139.907 C 227.609 138.634,227.550 139.676,227.550 142.222 M227.555 152.963 C 227.555 155.917,227.612 157.125,227.682 155.648 C 227.753 154.171,227.753 151.755,227.682 150.278 C 227.612 148.801,227.555 150.009,227.555 152.963 M227.567 159.377 C 227.464 159.645,227.429 161.604,227.489 163.729 L 227.598 167.593 227.780 163.240 C 227.961 158.937,227.933 158.425,227.567 159.377 M66.768 187.037 C 66.768 187.954,66.840 188.329,66.928 187.870 C 67.016 187.412,67.016 186.662,66.928 186.204 C 66.840 185.745,66.768 186.120,66.768 187.037 M66.768 202.963 C 66.768 203.880,66.840 204.255,66.928 203.796 C 67.016 203.338,67.016 202.588,66.928 202.130 C 66.840 201.671,66.768 202.046,66.768 202.963 " stroke="none" fill="#ac94dc" fill-rule="evenodd"></path></g></svg>