<svg id="svg" version="1.1" xmlns="http://www.w3.org/2000/svg" xmlns:xlink="http://www.w3.org/1999/xlink" width="400" height="402.96296296296293" viewBox="0, 0, 400,402.96296296296293"><g id="svgg"><path id="path0" d="M193.889 48.365 C 193.278 48.447,190.944 48.696,188.704 48.918 C 103.852 57.318,43.257 138.634,58.539 223.591 C 73.769 308.251,157.957 362.145,242.037 341.058 C 317.153 322.219,365.294 247.012,351.461 170.113 C 340.673 110.142,293.941 62.773,233.704 50.752 C 223.799 48.775,201.013 47.409,193.889 48.365 M217.037 53.345 C 332.186 63.617,389.090 197.021,316.879 287.407 C 251.621 369.089,121.536 354.216,75.553 259.815 C 26.913 159.959,106.714 43.504,217.037 53.345 M177.130 106.163 C 176.214 106.548,178.508 116.815,179.798 118.104 C 180.924 119.231,182.360 118.035,182.095 116.190 C 181.112 109.327,179.128 105.322,177.130 106.163 M165.833 115.215 C 164.494 115.995,165.112 117.136,168.975 121.012 C 173.054 125.105,174.098 125.610,174.891 123.870 C 175.300 122.972,175.123 122.728,171.278 118.870 C 167.120 114.699,166.933 114.574,165.833 115.215 M158.483 127.522 C 157.714 129.211,158.161 129.495,162.656 130.174 C 168.349 131.035,169.074 130.931,169.074 129.259 L 169.074 127.963 166.481 127.526 C 160.243 126.473,158.961 126.473,158.483 127.522 M188.807 128.501 C 181.407 129.939,179.422 139.612,185.727 143.513 C 187.394 144.544,187.860 144.644,191.821 144.815 L 196.111 145.000 196.220 147.685 C 196.280 149.162,196.196 150.370,196.035 150.369 C 195.873 150.369,193.741 149.838,191.296 149.191 C 181.059 146.478,168.467 147.481,161.111 151.595 C 140.174 163.304,136.578 201.941,154.692 220.556 C 158.755 224.731,161.716 230.322,163.499 237.183 C 164.393 240.625,164.571 241.916,165.951 255.000 C 168.294 277.216,173.673 289.259,181.253 289.259 C 186.816 289.259,191.397 277.490,193.723 257.222 C 195.410 242.528,197.427 237.475,202.444 235.379 C 209.297 232.516,214.759 238.877,216.271 251.483 C 218.911 273.497,224.711 288.889,230.367 288.889 C 238.100 288.889,245.047 273.750,245.919 255.000 C 246.573 240.931,248.955 231.528,253.678 224.374 C 272.169 196.366,273.595 172.684,257.680 157.948 L 255.048 155.512 258.262 152.299 L 261.475 149.086 264.172 151.765 C 267.452 155.024,270.000 155.188,270.000 152.140 C 270.000 150.878,256.413 137.407,255.139 137.407 C 252.113 137.407,252.328 139.899,255.642 143.235 L 258.322 145.933 254.809 149.425 L 251.296 152.918 247.672 151.126 C 238.790 146.733,228.839 146.206,218.967 149.606 L 215.896 150.663 216.004 147.831 L 216.111 145.000 220.556 144.815 C 224.406 144.654,225.221 144.506,226.650 143.704 C 233.213 140.021,231.534 130.153,224.072 128.553 C 221.953 128.098,191.113 128.053,188.807 128.501 M225.143 133.848 C 227.218 135.837,226.957 138.228,224.482 139.894 C 223.303 140.688,222.856 140.741,217.353 140.741 L 211.481 140.741 211.481 146.667 L 211.481 152.593 205.926 152.593 L 200.370 152.593 200.370 146.667 L 200.370 140.741 194.870 140.741 C 189.755 140.741,189.281 140.681,188.110 139.895 C 185.589 138.199,185.609 135.134,188.152 133.415 L 189.400 132.572 206.713 132.675 L 224.026 132.778 225.143 133.848 M207.037 169.500 C 207.037 169.835,206.605 173.294,206.077 177.185 C 205.366 182.423,205.170 185.125,205.322 187.593 L 205.527 190.926 203.708 191.778 C 200.300 193.375,199.246 196.750,200.900 200.767 C 201.062 201.161,200.851 201.481,200.245 201.757 C 199.385 202.149,194.263 209.942,194.627 210.306 C 195.036 210.715,202.332 204.433,202.645 203.403 C 202.760 203.027,203.029 203.006,203.828 203.310 C 205.323 203.879,208.382 203.793,209.629 203.149 C 214.550 200.604,213.706 192.612,208.375 191.274 C 207.493 191.052,207.384 190.883,207.592 190.054 C 208.412 186.790,208.507 184.748,208.193 177.198 C 208.008 172.730,207.920 169.006,207.999 168.923 C 208.855 168.018,218.667 171.385,222.100 173.762 C 228.860 178.444,234.444 187.827,234.444 194.504 L 234.444 195.556 231.185 195.556 C 227.753 195.556,227.037 195.843,227.037 197.222 C 227.037 198.604,227.752 198.889,231.220 198.889 L 234.514 198.889 234.259 200.833 C 232.655 213.055,220.346 224.815,209.158 224.815 L 207.808 224.815 207.700 221.759 L 207.593 218.704 206.296 218.704 L 205.000 218.704 204.892 221.759 L 204.785 224.815 203.563 224.815 C 201.557 224.815,196.925 223.473,194.209 222.105 C 172.436 211.140,173.644 179.981,196.193 170.914 C 200.637 169.127,207.037 168.292,207.037 169.500 M208.114 194.612 C 209.578 195.369,210.231 197.066,209.624 198.533 C 208.662 200.855,206.400 201.403,204.473 199.782 C 201.532 197.307,204.681 192.837,208.114 194.612 " stroke="none" fill="#5f26b6" fill-rule="evenodd"></path><path id="path1" d="M196.296 53.362 C 85.328 59.782,23.673 185.734,86.333 278.001 C 147.848 368.581,285.723 358.666,334.074 260.185 C 382.515 161.520,306.228 47.002,196.296 53.362 M179.348 106.204 C 180.346 107.330,182.728 116.832,182.241 117.743 C 181.772 118.619,179.948 118.817,179.366 118.056 C 179.172 117.801,178.370 115.195,177.585 112.264 L 176.157 106.934 177.008 106.245 C 178.069 105.386,178.615 105.376,179.348 106.204 M171.383 118.604 C 175.350 122.558,175.789 123.412,174.471 124.606 C 173.390 125.584,172.702 125.159,168.585 120.976 C 164.643 116.970,164.428 116.597,165.428 115.492 C 166.573 114.227,167.450 114.685,171.383 118.604 M164.468 126.985 C 169.925 127.830,170.969 128.673,168.888 130.557 C 166.911 132.345,157.138 129.686,158.209 127.651 C 159.030 126.090,158.832 126.111,164.468 126.985 M226.164 128.971 C 235.493 134.076,231.224 145.185,219.934 145.185 L 216.296 145.185 216.296 147.754 L 216.296 150.323 219.352 149.293 C 229.219 145.965,238.297 146.446,247.391 150.776 L 251.264 152.620 254.597 149.287 L 257.930 145.954 255.261 143.202 C 252.338 140.187,252.068 139.380,253.502 137.946 C 254.986 136.462,255.389 136.730,262.849 144.154 C 270.644 151.913,271.004 152.490,269.016 154.054 C 267.654 155.125,266.931 154.810,263.880 151.814 L 261.279 149.260 258.244 152.315 L 255.208 155.370 258.089 158.148 C 267.754 167.468,270.910 178.158,268.040 191.852 C 265.956 201.796,260.902 213.657,254.783 222.963 C 249.143 231.541,246.950 239.514,246.276 253.889 C 245.434 271.858,240.129 285.241,232.557 288.498 C 225.407 291.574,219.772 278.623,215.765 249.905 C 214.098 237.960,208.625 232.471,201.834 235.935 C 197.750 238.019,195.537 243.067,194.614 252.407 C 191.702 281.871,184.896 294.867,176.252 287.469 C 170.659 282.682,167.078 270.631,165.166 250.165 C 163.713 234.608,161.235 227.742,154.497 220.604 C 137.755 202.867,139.062 168.820,157.047 154.178 C 166.089 146.817,182.172 145.172,195.414 150.253 C 195.820 150.409,195.926 149.906,195.926 147.817 L 195.926 145.185 192.315 145.177 C 186.222 145.163,182.739 142.766,181.679 137.854 C 180.980 134.616,184.025 129.709,187.407 128.626 C 189.770 127.869,224.719 128.180,226.164 128.971 M199.630 170.019 C 170.117 177.660,172.785 220.321,203.041 224.571 L 204.415 224.764 204.522 221.741 C 204.715 216.318,208.148 216.656,208.148 222.099 L 208.148 224.824 209.722 224.601 C 222.440 222.805,232.752 212.706,233.975 200.850 L 234.178 198.889 230.806 198.889 C 227.851 198.889,227.386 198.800,227.050 198.172 C 225.980 196.174,227.324 195.185,231.111 195.185 L 234.074 195.185 234.069 193.981 C 234.019 182.992,222.168 170.805,210.160 169.394 L 208.126 169.155 208.333 174.855 C 208.447 177.990,208.616 181.394,208.708 182.419 C 208.858 184.084,208.572 186.815,207.944 189.706 C 207.754 190.578,207.887 190.777,208.956 191.226 C 217.480 194.807,212.375 206.220,203.462 203.508 C 202.858 203.325,202.605 203.452,202.421 204.032 C 202.104 205.031,194.711 210.986,194.516 210.400 C 194.300 209.753,198.417 203.114,199.707 202.029 C 200.719 201.177,200.776 201.005,200.405 199.940 C 199.130 196.282,200.668 192.773,204.192 191.300 C 205.213 190.874,205.548 190.540,205.418 190.079 C 204.766 187.770,204.836 185.061,205.731 177.925 C 206.265 173.668,206.772 169.977,206.858 169.722 C 207.100 169.003,202.886 169.176,199.630 170.019 M204.771 194.817 C 203.695 195.446,203.179 197.252,203.710 198.533 C 204.991 201.627,209.630 200.693,209.630 197.341 C 209.630 195.175,206.733 193.671,204.771 194.817 " stroke="none" fill="#fbfbfc" fill-rule="evenodd"></path><path id="path2" d="M189.383 132.999 C 186.522 133.827,185.499 136.873,187.376 138.976 L 188.455 140.185 194.506 140.370 L 200.556 140.556 200.657 146.574 L 200.759 152.593 206.120 152.593 L 211.481 152.593 211.481 146.481 L 211.481 140.370 217.432 140.370 C 221.085 140.370,223.694 140.211,224.191 139.957 C 227.513 138.258,226.685 133.578,222.930 132.827 C 221.105 132.462,190.699 132.618,189.383 132.999 " stroke="none" fill="#c4c4c4" fill-rule="evenodd"></path><path id="path3" d="M199.171 53.225 C 199.632 53.314,200.298 53.310,200.652 53.217 C 201.007 53.125,200.630 53.052,199.815 53.056 C 199.000 53.060,198.710 53.136,199.171 53.225 M209.541 53.225 C 210.002 53.314,210.669 53.310,211.023 53.217 C 211.377 53.125,211.000 53.052,210.185 53.056 C 209.370 53.060,209.081 53.136,209.541 53.225 M181.567 136.667 C 181.567 137.380,181.644 137.671,181.737 137.315 C 181.830 136.958,181.830 136.375,181.737 136.019 C 181.644 135.662,181.567 135.954,181.567 136.667 M255.370 143.333 C 256.785 144.759,258.026 145.926,258.128 145.926 C 258.230 145.926,257.156 144.759,255.741 143.333 C 254.326 141.907,253.085 140.741,252.983 140.741 C 252.881 140.741,253.955 141.907,255.370 143.333 M216.050 147.778 C 216.050 149.306,216.116 149.931,216.196 149.167 C 216.276 148.403,216.276 147.153,216.196 146.389 C 216.116 145.625,216.050 146.250,216.050 147.778 M263.889 151.852 C 265.304 153.278,266.545 154.444,266.647 154.444 C 266.749 154.444,265.674 153.278,264.259 151.852 C 262.844 150.426,261.603 149.259,261.501 149.259 C 261.399 149.259,262.474 150.426,263.889 151.852 M208.234 174.444 C 208.234 175.157,208.310 175.449,208.403 175.093 C 208.497 174.736,208.497 174.153,208.403 173.796 C 208.310 173.440,208.234 173.731,208.234 174.444 M225.926 177.222 C 226.617 177.935,227.266 178.519,227.368 178.519 C 227.469 178.519,226.987 177.935,226.296 177.222 C 225.605 176.509,224.957 175.926,224.855 175.926 C 224.753 175.926,225.235 176.509,225.926 177.222 M208.604 184.074 C 208.604 184.787,208.681 185.079,208.774 184.722 C 208.867 184.366,208.867 183.782,208.774 183.426 C 208.681 183.069,208.604 183.361,208.604 184.074 M142.717 187.407 C 142.717 188.935,142.782 189.560,142.862 188.796 C 142.942 188.032,142.942 186.782,142.862 186.019 C 142.782 185.255,142.717 185.880,142.717 187.407 M61.205 191.667 C 61.209 192.481,61.284 192.771,61.373 192.310 C 61.462 191.850,61.458 191.183,61.366 190.829 C 61.273 190.475,61.200 190.852,61.205 191.667 M348.612 191.667 C 348.616 192.481,348.692 192.771,348.780 192.310 C 348.869 191.850,348.866 191.183,348.773 190.829 C 348.680 190.475,348.608 190.852,348.612 191.667 M234.074 194.800 C 234.074 194.995,232.699 195.211,231.019 195.280 L 227.963 195.405 231.204 195.480 C 233.871 195.542,234.444 195.457,234.444 195.000 C 234.444 194.694,234.361 194.444,234.259 194.444 C 234.157 194.444,234.074 194.604,234.074 194.800 M61.205 202.037 C 61.209 202.852,61.284 203.142,61.373 202.681 C 61.462 202.220,61.458 201.553,61.366 201.199 C 61.273 200.845,61.200 201.222,61.205 202.037 M348.612 202.037 C 348.616 202.852,348.692 203.142,348.780 202.681 C 348.869 202.220,348.866 201.553,348.773 201.199 C 348.680 200.845,348.608 201.222,348.612 202.037 M246.050 255.185 C 246.050 256.713,246.116 257.338,246.196 256.574 C 246.276 255.810,246.276 254.560,246.196 253.796 C 246.116 253.032,246.050 253.657,246.050 255.185 M199.171 340.632 C 199.632 340.721,200.298 340.718,200.652 340.625 C 201.007 340.532,200.630 340.460,199.815 340.464 C 199.000 340.468,198.710 340.544,199.171 340.632 M209.541 340.632 C 210.002 340.721,210.669 340.718,211.023 340.625 C 211.377 340.532,211.000 340.460,210.185 340.464 C 209.370 340.468,209.081 340.544,209.541 340.632 " stroke="none" fill="#bca5e0" fill-rule="evenodd"></path><path id="path4" d="M196.204 53.224 C 196.662 53.313,197.412 53.313,197.870 53.224 C 198.329 53.136,197.954 53.064,197.037 53.064 C 196.120 53.064,195.745 53.136,196.204 53.224 M212.130 53.224 C 212.588 53.313,213.338 53.313,213.796 53.224 C 214.255 53.136,213.880 53.064,212.963 53.064 C 212.046 53.064,211.671 53.136,212.130 53.224 M171.111 118.704 C 173.038 120.639,174.698 122.222,174.800 122.222 C 174.902 122.222,173.409 120.639,171.481 118.704 C 169.554 116.769,167.894 115.185,167.792 115.185 C 167.691 115.185,169.184 116.769,171.111 118.704 M168.704 121.111 C 170.733 123.148,172.477 124.815,172.579 124.815 C 172.681 124.815,171.103 123.148,169.074 121.111 C 167.045 119.074,165.301 117.407,165.199 117.407 C 165.097 117.407,166.674 119.074,168.704 121.111 M230.827 136.667 C 230.827 137.380,230.903 137.671,230.996 137.315 C 231.089 136.958,231.089 136.375,230.996 136.019 C 230.903 135.662,230.827 135.954,230.827 136.667 M194.805 140.643 L 200.352 140.760 200.468 146.677 L 200.584 152.593 200.570 146.574 L 200.556 140.556 194.907 140.541 L 189.258 140.526 194.805 140.643 M214.740 140.646 C 216.430 140.715,219.097 140.715,220.666 140.645 C 222.235 140.576,220.852 140.520,217.593 140.520 C 214.333 140.521,213.050 140.577,214.740 140.646 M192.391 145.085 L 195.894 145.212 196.027 147.698 L 196.160 150.185 196.135 147.593 L 196.111 145.000 192.499 144.979 L 188.887 144.958 192.391 145.085 M218.056 145.088 C 219.125 145.163,220.875 145.163,221.944 145.088 C 223.014 145.013,222.139 144.952,220.000 144.952 C 217.861 144.952,216.986 145.013,218.056 145.088 M254.407 149.449 C 252.452 151.382,250.955 152.963,251.081 152.963 C 251.208 152.963,252.888 151.380,254.815 149.444 C 256.742 147.509,258.239 145.928,258.141 145.931 C 258.043 145.933,256.363 147.517,254.407 149.449 M231.019 147.305 C 231.681 147.387,232.764 147.387,233.426 147.305 C 234.088 147.223,233.546 147.156,232.222 147.156 C 230.898 147.156,230.356 147.223,231.019 147.305 M175.463 147.682 C 176.736 147.754,178.819 147.754,180.093 147.682 C 181.366 147.609,180.324 147.550,177.778 147.550 C 175.231 147.550,174.190 147.609,175.463 147.682 M154.425 156.574 L 153.148 157.963 154.537 156.687 C 155.301 155.985,155.926 155.360,155.926 155.298 C 155.926 155.015,155.613 155.281,154.425 156.574 M203.796 169.144 C 204.153 169.237,204.736 169.237,205.093 169.144 C 205.449 169.051,205.157 168.975,204.444 168.975 C 203.731 168.975,203.440 169.051,203.796 169.144 M207.833 170.093 C 207.883 171.179,207.904 171.199,208.041 170.301 C 208.142 169.637,208.463 169.252,209.004 169.147 C 209.672 169.018,209.635 168.981,208.796 168.939 C 207.873 168.894,207.783 169.002,207.833 170.093 M208.275 178.333 C 208.276 179.963,208.342 180.584,208.420 179.712 C 208.498 178.841,208.497 177.508,208.417 176.749 C 208.338 175.991,208.274 176.704,208.275 178.333 M268.982 182.407 C 268.986 183.222,269.062 183.512,269.151 183.051 C 269.239 182.591,269.236 181.924,269.143 181.570 C 269.051 181.216,268.978 181.593,268.982 182.407 M61.212 188.889 C 61.212 189.806,61.284 190.181,61.372 189.722 C 61.461 189.264,61.461 188.514,61.372 188.056 C 61.284 187.597,61.212 187.972,61.212 188.889 M348.619 188.889 C 348.619 189.806,348.692 190.181,348.780 189.722 C 348.868 189.264,348.868 188.514,348.780 188.056 C 348.692 187.597,348.619 187.972,348.619 188.889 M61.212 204.815 C 61.212 205.731,61.284 206.106,61.372 205.648 C 61.461 205.190,61.461 204.440,61.372 203.981 C 61.284 203.523,61.212 203.898,61.212 204.815 M348.619 204.815 C 348.619 205.731,348.692 206.106,348.780 205.648 C 348.868 205.190,348.868 204.440,348.780 203.981 C 348.692 203.523,348.619 203.898,348.619 204.815 M205.838 203.966 C 206.298 204.054,206.965 204.051,207.319 203.958 C 207.673 203.865,207.296 203.793,206.481 203.797 C 205.667 203.801,205.377 203.877,205.838 203.966 M186.667 216.852 C 187.358 217.565,188.006 218.148,188.108 218.148 C 188.210 218.148,187.728 217.565,187.037 216.852 C 186.346 216.139,185.697 215.556,185.595 215.556 C 185.494 215.556,185.976 216.139,186.667 216.852 M204.571 222.037 C 204.573 223.667,204.638 224.287,204.716 223.416 C 204.794 222.545,204.793 221.212,204.714 220.453 C 204.634 219.695,204.570 220.407,204.571 222.037 M207.902 222.222 C 207.902 223.750,207.968 224.375,208.048 223.611 C 208.127 222.847,208.127 221.597,208.048 220.833 C 207.968 220.069,207.902 220.694,207.902 222.222 M194.530 250.370 C 194.530 251.083,194.607 251.375,194.700 251.019 C 194.793 250.662,194.793 250.079,194.700 249.722 C 194.607 249.366,194.530 249.657,194.530 250.370 M246.019 251.296 C 246.023 252.111,246.099 252.401,246.188 251.940 C 246.276 251.479,246.273 250.813,246.180 250.459 C 246.088 250.105,246.015 250.481,246.019 251.296 M196.204 340.632 C 196.662 340.720,197.412 340.720,197.870 340.632 C 198.329 340.543,197.954 340.471,197.037 340.471 C 196.120 340.471,195.745 340.543,196.204 340.632 M212.130 340.632 C 212.588 340.720,213.338 340.720,213.796 340.632 C 214.255 340.543,213.880 340.471,212.963 340.471 C 212.046 340.471,211.671 340.543,212.130 340.632 " stroke="none" fill="#ac84d4" fill-rule="evenodd"></path></g></svg>