<svg id="svg" version="1.1" xmlns="http://www.w3.org/2000/svg" xmlns:xlink="http://www.w3.org/1999/xlink" width="400" height="402.96296296296293" viewBox="0, 0, 400,402.96296296296293"><g id="svgg"><path id="path0" d="M187.593 54.291 C 186.981 54.373,184.648 54.622,182.407 54.844 C 97.556 63.244,36.960 144.560,52.243 229.517 C 67.472 314.177,151.661 368.071,235.741 346.984 C 310.859 328.145,358.998 252.940,345.164 176.039 C 334.376 116.068,287.644 68.699,227.407 56.678 C 217.503 54.701,194.716 53.335,187.593 54.291 M215.556 59.790 C 319.889 73.183,375.815 187.434,321.940 277.125 C 278.977 348.650,183.048 368.554,115.217 320.016 C 42.670 268.103,34.023 164.089,97.019 101.093 C 128.198 69.915,172.950 54.321,215.556 59.790 M203.148 140.593 C 163.922 144.560,141.211 184.939,158.366 220.211 C 160.358 224.305,160.390 222.803,158.027 236.019 C 156.797 242.897,156.206 247.038,156.454 247.040 C 156.673 247.042,162.154 246.268,168.635 245.321 L 180.419 243.599 184.006 245.304 C 222.097 263.407,265.592 233.647,262.551 191.563 C 260.364 161.305,232.737 137.600,203.148 140.593 M227.327 167.857 C 232.969 169.945,236.667 178.977,235.030 186.667 C 231.181 204.748,214.842 222.541,195.741 229.452 C 182.643 234.191,171.229 229.321,170.983 218.889 L 170.926 216.481 174.815 214.212 C 176.954 212.963,180.148 211.095,181.914 210.060 C 186.992 207.083,186.450 206.969,191.305 212.022 C 196.136 217.049,195.433 216.912,200.637 213.844 C 208.321 209.315,213.088 204.531,217.939 196.483 C 220.595 192.078,220.594 191.292,217.932 189.041 C 211.499 183.601,211.082 182.852,212.886 179.980 C 213.455 179.074,215.158 176.110,216.671 173.392 C 220.799 165.977,221.404 165.663,227.327 167.857 " stroke="none" fill="#6325b5" fill-rule="evenodd"></path><path id="path1" d="M190.360 59.264 C 75.817 66.365,14.995 198.018,84.026 289.430 C 151.034 378.163,289.419 360.028,331.869 256.951 C 371.806 159.976,295.067 52.773,190.360 59.264 M219.315 125.537 C 269.166 134.102,294.449 190.113,267.863 233.092 C 249.832 262.241,211.603 274.682,180.692 261.460 L 175.374 259.186 157.594 262.741 C 137.712 266.717,138.787 266.564,137.778 265.556 C 136.706 264.484,136.748 264.059,139.815 244.839 C 143.138 224.014,143.079 225.557,140.741 220.664 C 138.634 216.253,137.543 212.408,137.033 207.593 C 132.573 165.523,157.737 131.749,198.519 125.067 C 201.685 124.549,215.360 124.857,219.315 125.537 M201.852 126.171 C 176.399 128.661,155.373 143.332,144.568 166.141 C 136.443 183.294,135.650 208.078,142.787 221.825 L 144.429 224.988 141.270 244.781 C 139.533 255.667,138.027 264.711,137.923 264.879 C 137.640 265.337,137.003 265.451,157.103 261.432 L 175.873 257.679 179.410 259.399 C 210.271 274.412,251.177 260.613,268.558 229.328 C 295.374 181.061,256.428 120.833,201.852 126.171 M219.630 141.604 C 255.199 150.043,273.260 188.438,256.827 220.678 C 243.124 247.563,210.017 258.598,183.320 245.178 L 180.529 243.775 168.322 245.563 C 161.609 246.546,156.056 247.290,155.982 247.217 C 155.909 247.143,156.786 241.826,157.931 235.400 L 160.014 223.718 158.923 221.766 C 150.106 205.994,150.297 184.659,159.398 168.595 C 171.398 147.414,196.573 136.133,219.630 141.604 M219.893 168.241 C 219.405 168.903,217.956 171.361,216.671 173.704 C 215.387 176.046,213.860 178.728,213.279 179.662 C 211.563 182.421,211.777 183.264,214.888 185.994 C 220.900 191.271,220.958 191.377,219.406 194.297 C 214.847 202.879,209.038 209.026,200.877 213.905 C 195.325 217.224,195.980 217.416,189.753 210.635 C 187.146 207.795,186.242 207.547,184.018 209.058 C 183.282 209.558,180.785 210.999,178.469 212.259 C 171.484 216.061,171.111 216.377,171.111 218.497 C 171.111 228.331,182.419 233.939,194.011 229.855 C 204.610 226.120,209.882 222.934,217.357 215.744 C 233.963 199.771,239.521 181.426,231.023 170.637 C 228.384 167.287,221.660 165.839,219.893 168.241 " stroke="none" fill="#fbfbfb" fill-rule="evenodd"></path><path id="path2" d="M190.833 59.144 C 191.190 59.237,191.773 59.237,192.130 59.144 C 192.486 59.051,192.194 58.975,191.481 58.975 C 190.769 58.975,190.477 59.051,190.833 59.144 M205.278 59.144 C 205.634 59.237,206.218 59.237,206.574 59.144 C 206.931 59.051,206.639 58.975,205.926 58.975 C 205.213 58.975,204.921 59.051,205.278 59.144 M100.168 97.870 L 98.704 99.444 100.278 97.980 C 101.742 96.619,102.022 96.296,101.742 96.296 C 101.681 96.296,100.973 97.005,100.168 97.870 M296.852 97.778 C 297.647 98.593,298.382 99.259,298.484 99.259 C 298.586 99.259,298.018 98.593,297.222 97.778 C 296.427 96.963,295.692 96.296,295.590 96.296 C 295.489 96.296,296.056 96.963,296.852 97.778 M93.501 104.537 L 92.037 106.111 93.611 104.647 C 95.075 103.286,95.355 102.963,95.075 102.963 C 95.015 102.963,94.306 103.671,93.501 104.537 M303.519 104.444 C 304.314 105.259,305.048 105.926,305.150 105.926 C 305.252 105.926,304.685 105.259,303.889 104.444 C 303.093 103.630,302.359 102.963,302.257 102.963 C 302.155 102.963,302.723 103.630,303.519 104.444 M168.319 156.759 L 166.481 158.704 168.426 156.866 C 169.495 155.855,170.370 154.980,170.370 154.921 C 170.370 154.645,170.027 154.952,168.319 156.759 M262.686 193.519 C 262.690 194.333,262.766 194.623,262.855 194.162 C 262.943 193.702,262.940 193.035,262.847 192.681 C 262.754 192.327,262.682 192.704,262.686 193.519 M342.308 195.556 C 342.308 196.269,342.384 196.560,342.478 196.204 C 342.571 195.847,342.571 195.264,342.478 194.907 C 342.384 194.551,342.308 194.843,342.308 195.556 M262.686 197.593 C 262.690 198.407,262.766 198.697,262.855 198.236 C 262.943 197.776,262.940 197.109,262.847 196.755 C 262.754 196.401,262.682 196.778,262.686 197.593 M54.901 210.000 C 54.901 210.713,54.977 211.005,55.070 210.648 C 55.163 210.292,55.163 209.708,55.070 209.352 C 54.977 208.995,54.901 209.287,54.901 210.000 M342.308 210.000 C 342.308 210.713,342.384 211.005,342.478 210.648 C 342.571 210.292,342.571 209.708,342.478 209.352 C 342.384 208.995,342.308 209.287,342.308 210.000 M218.510 214.722 L 215.370 217.963 218.611 214.823 C 221.621 211.907,222.021 211.481,221.751 211.481 C 221.696 211.481,220.237 212.940,218.510 214.722 M172.593 225.301 C 172.593 225.365,173.134 225.906,173.796 226.505 L 175.000 227.593 173.912 226.389 C 172.898 225.267,172.593 225.015,172.593 225.301 M93.519 301.111 C 94.314 301.926,95.048 302.593,95.150 302.593 C 95.252 302.593,94.685 301.926,93.889 301.111 C 93.093 300.296,92.359 299.630,92.257 299.630 C 92.155 299.630,92.723 300.296,93.519 301.111 M303.501 301.204 L 302.037 302.778 303.611 301.314 C 305.075 299.952,305.355 299.630,305.075 299.630 C 305.015 299.630,304.306 300.338,303.501 301.204 M100.185 307.778 C 100.981 308.593,101.715 309.259,101.817 309.259 C 101.919 309.259,101.351 308.593,100.556 307.778 C 99.760 306.963,99.026 306.296,98.924 306.296 C 98.822 306.296,99.390 306.963,100.185 307.778 M296.834 307.870 L 295.370 309.444 296.944 307.980 C 298.408 306.619,298.689 306.296,298.408 306.296 C 298.348 306.296,297.640 307.005,296.834 307.870 M190.833 346.552 C 191.190 346.645,191.773 346.645,192.130 346.552 C 192.486 346.458,192.194 346.382,191.481 346.382 C 190.769 346.382,190.477 346.458,190.833 346.552 M205.278 346.552 C 205.634 346.645,206.218 346.645,206.574 346.552 C 206.931 346.458,206.639 346.382,205.926 346.382 C 205.213 346.382,204.921 346.458,205.278 346.552 " stroke="none" fill="#bea3de" fill-rule="evenodd"></path><path id="path3" d="M199.259 125.799 C 172.380 129.263,149.560 147.884,141.118 173.241 C 135.705 189.502,136.198 211.774,142.199 222.067 C 143.898 224.982,143.936 224.404,140.735 244.457 C 139.096 254.725,137.807 263.381,137.870 263.693 C 137.934 264.004,138.464 261.259,139.050 257.593 C 139.635 253.926,141.046 245.098,142.187 237.974 L 144.259 225.023 142.313 221.123 C 134.002 204.464,136.993 176.127,148.990 157.860 C 175.245 117.885,231.628 114.791,261.844 151.667 C 287.974 183.556,280.351 231.490,245.542 254.179 C 225.970 266.936,198.644 269.097,179.139 259.430 L 175.870 257.810 158.028 261.369 C 148.214 263.327,140.019 265.095,139.815 265.297 C 139.569 265.541,139.631 265.604,140.000 265.484 C 140.306 265.385,148.420 263.740,158.033 261.828 L 175.510 258.352 177.477 259.227 C 192.602 265.956,206.668 267.528,222.264 264.235 C 263.019 255.631,287.412 212.956,274.225 173.333 C 266.393 149.803,246.380 132.068,221.727 126.809 C 217.312 125.868,203.534 125.248,199.259 125.799 " stroke="none" fill="#cbcbcb" fill-rule="evenodd"></path><path id="path4" d="M193.245 59.151 C 193.706 59.239,194.372 59.236,194.727 59.143 C 195.081 59.051,194.704 58.978,193.889 58.982 C 193.074 58.986,192.784 59.062,193.245 59.151 M202.875 59.151 C 203.335 59.239,204.002 59.236,204.356 59.143 C 204.710 59.051,204.333 58.978,203.519 58.982 C 202.704 58.986,202.414 59.062,202.875 59.151 M96.838 101.204 L 95.000 103.148 96.944 101.310 C 98.014 100.299,98.889 99.424,98.889 99.366 C 98.889 99.089,98.546 99.397,96.838 101.204 M300.185 101.111 C 301.188 102.130,302.093 102.963,302.194 102.963 C 302.296 102.963,301.559 102.130,300.556 101.111 C 299.552 100.093,298.648 99.259,298.546 99.259 C 298.445 99.259,299.182 100.093,300.185 101.111 M198.519 125.067 C 157.737 131.749,132.573 165.523,137.033 207.593 C 137.543 212.408,138.634 216.253,140.741 220.664 C 143.079 225.557,143.138 224.014,139.815 244.839 C 136.748 264.059,136.706 264.484,137.778 265.556 C 138.787 266.564,137.712 266.717,157.594 262.741 L 175.374 259.186 180.692 261.460 C 211.603 274.682,249.832 262.241,267.863 233.092 C 294.449 190.113,269.166 134.102,219.315 125.537 C 215.360 124.857,201.685 124.549,198.519 125.067 M221.481 126.765 C 227.523 128.065,231.185 129.210,230.879 129.706 C 230.725 129.955,230.796 130.009,231.061 129.846 C 231.676 129.466,234.138 130.337,233.835 130.828 C 233.685 131.071,233.764 131.117,234.039 130.947 C 234.636 130.579,236.724 131.460,236.420 131.952 C 236.285 132.170,236.361 132.226,236.594 132.082 C 237.133 131.749,243.059 134.731,242.773 135.192 C 242.647 135.397,242.823 135.444,243.190 135.303 C 243.590 135.150,243.736 135.204,243.583 135.451 C 243.446 135.673,243.619 135.820,243.985 135.792 C 244.340 135.764,244.594 135.929,244.552 136.160 C 244.509 136.391,244.759 136.557,245.107 136.531 C 245.456 136.504,245.701 136.684,245.653 136.931 C 245.604 137.178,245.796 137.292,246.078 137.184 C 246.361 137.075,246.718 137.190,246.872 137.439 C 247.066 137.754,246.992 137.800,246.631 137.590 C 246.328 137.415,246.238 137.427,246.415 137.621 C 246.582 137.804,246.999 137.956,247.341 137.958 C 247.683 137.961,247.928 138.152,247.885 138.382 C 247.842 138.613,248.088 138.780,248.432 138.753 C 248.775 138.726,249.064 138.954,249.073 139.259 C 249.083 139.565,249.352 139.772,249.671 139.720 C 249.990 139.667,250.570 139.998,250.959 140.454 C 251.660 141.276,251.660 141.278,250.926 140.734 C 250.246 140.230,250.225 140.237,250.675 140.811 C 250.945 141.156,251.376 141.356,251.634 141.257 C 251.892 141.158,252.317 141.335,252.579 141.650 C 252.840 141.965,252.930 142.222,252.778 142.222 C 252.626 142.222,252.701 142.462,252.945 142.756 C 253.188 143.049,253.585 143.214,253.826 143.121 C 254.393 142.903,260.535 149.064,260.235 149.549 C 260.110 149.751,260.256 150.122,260.560 150.374 C 260.863 150.625,261.111 150.707,261.111 150.556 C 261.111 150.404,261.363 150.489,261.672 150.745 C 261.980 151.001,262.188 151.476,262.135 151.800 C 262.081 152.125,262.204 152.397,262.407 152.405 C 263.132 152.432,263.722 153.028,263.621 153.631 C 263.564 153.968,263.768 154.250,264.074 154.260 C 264.380 154.269,264.608 154.558,264.581 154.902 C 264.554 155.245,264.720 155.491,264.951 155.448 C 265.182 155.406,265.348 155.656,265.321 156.004 C 265.294 156.352,265.461 156.602,265.692 156.560 C 265.922 156.517,266.089 156.767,266.062 157.115 C 266.035 157.464,266.202 157.714,266.432 157.671 C 266.663 157.628,266.829 157.882,266.801 158.237 C 266.773 158.591,266.890 158.795,267.060 158.689 C 267.495 158.421,268.238 159.925,267.923 160.435 C 267.766 160.688,267.828 160.753,268.079 160.598 C 268.593 160.281,271.250 165.401,270.881 165.998 C 270.737 166.232,270.793 166.308,271.011 166.173 C 271.503 165.869,272.384 167.956,272.015 168.553 C 271.845 168.829,271.892 168.908,272.138 168.756 C 272.624 168.456,273.119 169.819,272.744 170.424 C 272.586 170.680,272.639 170.756,272.874 170.610 C 273.427 170.269,275.311 176.030,275.003 177.121 C 274.849 177.670,274.882 177.797,275.099 177.486 C 275.540 176.854,276.436 180.792,276.113 181.941 C 275.951 182.515,275.986 182.622,276.222 182.282 C 276.458 181.941,276.727 182.753,277.079 184.875 C 278.135 191.226,277.442 210.587,276.222 208.829 C 275.986 208.489,275.951 208.597,276.113 209.170 C 276.436 210.319,275.540 214.258,275.099 213.625 C 274.878 213.309,274.842 213.418,274.991 213.950 C 275.307 215.080,274.825 216.899,274.384 216.239 C 274.173 215.923,274.143 216.133,274.302 216.815 C 274.468 217.527,274.421 217.807,274.163 217.647 C 273.915 217.494,273.849 217.698,273.982 218.206 C 274.124 218.749,274.055 218.921,273.766 218.742 C 273.500 218.578,273.417 218.675,273.542 219.002 C 273.829 219.751,271.861 224.494,271.386 224.200 C 271.164 224.063,271.106 224.136,271.251 224.371 C 271.585 224.911,268.602 230.836,268.141 230.551 C 267.937 230.425,267.890 230.601,268.030 230.967 C 268.184 231.367,268.129 231.513,267.883 231.361 C 267.660 231.223,267.513 231.397,267.542 231.763 C 267.570 232.120,267.373 232.362,267.102 232.306 C 266.832 232.250,266.715 232.371,266.841 232.576 C 267.142 233.063,266.356 234.525,265.933 234.264 C 265.754 234.153,265.486 234.257,265.339 234.496 C 265.171 234.766,265.231 234.830,265.498 234.665 C 266.166 234.252,266.000 235.034,265.299 235.603 C 264.759 236.041,264.716 236.034,264.988 235.556 C 265.173 235.230,265.167 235.126,264.972 235.304 C 264.789 235.471,264.637 235.887,264.634 236.229 C 264.632 236.570,264.380 236.850,264.075 236.851 C 263.767 236.851,263.519 237.182,263.519 237.592 C 263.519 237.999,263.269 238.336,262.963 238.341 C 262.657 238.346,262.451 238.616,262.505 238.940 C 262.559 239.265,262.350 239.740,262.042 239.996 C 261.734 240.252,261.481 240.337,261.481 240.185 C 261.481 240.033,261.233 240.115,260.930 240.367 C 260.627 240.619,260.481 240.990,260.606 241.193 C 260.833 241.560,253.806 248.889,253.226 248.889 C 253.057 248.889,253.044 248.681,253.197 248.426 C 253.389 248.108,253.281 248.121,252.853 248.468 C 252.511 248.746,252.310 249.102,252.407 249.259 C 252.653 249.656,251.666 250.420,251.074 250.291 C 250.808 250.233,250.579 250.352,250.567 250.556 C 250.522 251.289,249.932 251.869,249.332 251.769 C 248.995 251.713,248.713 251.916,248.703 252.222 C 248.694 252.528,248.405 252.756,248.061 252.729 C 247.718 252.702,247.472 252.868,247.515 253.099 C 247.557 253.330,247.307 253.496,246.959 253.469 C 246.610 253.443,246.360 253.609,246.403 253.840 C 246.446 254.071,246.196 254.237,245.848 254.210 C 245.499 254.183,245.249 254.350,245.292 254.581 C 245.335 254.811,245.080 254.977,244.726 254.949 C 244.360 254.920,244.186 255.067,244.324 255.290 C 244.474 255.533,244.335 255.593,243.954 255.447 C 243.577 255.302,243.376 255.384,243.430 255.661 C 243.479 255.909,243.229 256.088,242.874 256.060 C 242.508 256.031,242.335 256.178,242.472 256.401 C 242.624 256.647,242.479 256.702,242.079 256.549 C 241.713 256.408,241.536 256.455,241.662 256.659 C 241.951 257.126,236.744 259.738,236.052 259.473 C 235.758 259.360,235.607 259.413,235.717 259.591 C 235.994 260.040,233.851 260.876,233.298 260.534 C 233.020 260.362,232.944 260.411,233.100 260.662 C 233.801 261.798,220.632 264.950,212.526 265.587 C 204.424 266.223,187.144 264.514,188.954 263.255 C 189.285 263.025,189.171 262.991,188.604 263.151 C 187.531 263.453,183.979 262.305,184.314 261.764 C 184.459 261.528,184.384 261.475,184.128 261.633 C 183.522 262.008,182.159 261.513,182.459 261.027 C 182.614 260.777,182.532 260.734,182.241 260.914 C 181.720 261.236,178.076 259.676,178.343 259.244 C 178.435 259.095,178.304 258.988,178.052 259.007 C 177.799 259.026,176.992 258.910,176.259 258.749 C 175.143 258.505,144.459 264.196,140.231 265.432 C 139.787 265.562,139.627 265.489,139.787 265.230 C 139.955 264.959,139.697 264.894,139.000 265.032 C 137.438 265.343,137.480 264.852,140.757 244.319 C 143.229 228.833,143.649 225.586,143.313 224.567 C 143.091 223.897,143.031 223.152,143.179 222.913 C 143.344 222.646,143.288 222.577,143.034 222.734 C 142.516 223.054,140.977 220.143,141.266 219.389 C 141.380 219.093,141.320 218.945,141.134 219.060 C 140.693 219.332,140.241 217.916,140.589 217.353 C 140.750 217.092,140.694 217.022,140.446 217.176 C 139.957 217.478,138.842 214.060,138.104 210.000 C 137.250 205.303,137.456 189.016,138.436 183.704 C 139.700 176.852,142.946 166.754,143.728 167.237 C 143.914 167.352,143.956 167.160,143.822 166.810 C 143.657 166.382,143.718 166.261,144.007 166.440 C 144.281 166.609,144.361 166.511,144.229 166.166 C 143.940 165.413,145.479 162.502,145.997 162.822 C 146.245 162.975,146.307 162.910,146.153 162.661 C 145.821 162.123,146.957 159.907,147.419 160.192 C 147.618 160.316,147.664 160.135,147.525 159.773 C 147.372 159.373,147.427 159.227,147.673 159.380 C 147.896 159.517,148.043 159.344,148.014 158.977 C 147.986 158.623,148.152 158.368,148.382 158.411 C 148.613 158.454,148.780 158.204,148.753 157.856 C 148.726 157.507,148.892 157.257,149.123 157.300 C 149.354 157.343,149.520 157.093,149.493 156.745 C 149.467 156.396,149.633 156.146,149.864 156.189 C 150.094 156.232,150.261 155.986,150.234 155.643 C 150.207 155.299,150.380 155.014,150.617 155.009 C 150.855 155.004,151.188 154.848,151.358 154.663 C 151.537 154.467,151.473 154.437,151.204 154.592 C 150.949 154.739,150.741 154.692,150.741 154.488 C 150.741 154.117,151.449 153.535,151.914 153.524 C 152.049 153.521,152.299 153.367,152.469 153.181 C 152.648 152.985,152.584 152.956,152.315 153.111 C 152.060 153.257,151.852 153.221,151.852 153.030 C 151.852 152.578,152.790 151.802,153.037 152.049 C 153.142 152.154,153.460 151.954,153.744 151.605 C 154.085 151.184,154.103 151.063,153.796 151.247 C 152.785 151.854,153.420 150.810,154.902 149.427 C 156.013 148.391,156.202 148.288,155.550 149.074 L 154.630 150.185 155.637 149.298 C 156.191 148.810,156.546 148.252,156.426 148.059 C 156.134 147.586,159.684 144.016,160.236 144.227 C 160.475 144.319,160.978 144.031,161.354 143.586 L 162.037 142.778 161.111 143.511 C 160.541 143.962,160.676 143.713,161.461 142.863 C 162.163 142.103,162.944 141.524,163.196 141.574 C 163.449 141.625,163.624 141.567,163.587 141.446 C 163.444 140.983,164.570 139.995,165.134 140.088 C 165.458 140.141,165.728 139.935,165.733 139.630 C 165.738 139.324,166.076 139.074,166.482 139.074 C 166.889 139.073,167.226 138.823,167.231 138.518 C 167.236 138.213,167.521 137.985,167.865 138.012 C 168.208 138.039,168.454 137.872,168.411 137.642 C 168.368 137.411,168.623 137.245,168.977 137.273 C 169.332 137.301,169.535 137.184,169.430 137.014 C 169.176 136.603,170.652 135.827,171.128 136.122 C 171.332 136.248,171.454 136.131,171.398 135.861 C 171.342 135.590,171.584 135.393,171.940 135.421 C 172.307 135.450,172.480 135.303,172.343 135.080 C 172.190 134.834,172.336 134.779,172.736 134.933 C 173.095 135.071,173.278 135.025,173.157 134.829 C 172.871 134.367,174.344 133.598,174.880 133.929 C 175.156 134.100,175.196 134.021,174.996 133.698 C 174.774 133.339,174.864 133.273,175.329 133.451 C 175.678 133.585,175.878 133.555,175.772 133.383 C 175.512 132.963,177.358 132.148,177.863 132.460 C 178.085 132.597,178.157 132.536,178.025 132.322 C 177.721 131.830,179.808 130.949,180.405 131.318 C 180.681 131.488,180.759 131.441,180.607 131.195 C 180.307 130.710,181.670 130.215,182.276 130.589 C 182.533 130.747,182.608 130.694,182.461 130.457 C 182.158 129.967,184.620 129.095,185.235 129.475 C 185.525 129.654,185.570 129.583,185.372 129.262 C 185.143 128.891,185.320 128.838,186.148 129.031 C 186.828 129.190,187.040 129.160,186.725 128.950 C 185.981 128.453,192.606 126.807,199.444 125.790 C 203.111 125.244,217.341 125.874,221.481 126.765 M201.204 126.181 C 201.560 126.274,202.144 126.274,202.500 126.181 C 202.856 126.088,202.565 126.012,201.852 126.012 C 201.139 126.012,200.847 126.088,201.204 126.181 M235.286 182.593 C 235.286 183.509,235.358 183.884,235.447 183.426 C 235.535 182.968,235.535 182.218,235.447 181.759 C 235.358 181.301,235.286 181.676,235.286 182.593 M277.130 190.926 C 277.135 191.741,277.210 192.030,277.299 191.570 C 277.388 191.109,277.384 190.442,277.292 190.088 C 277.199 189.734,277.126 190.111,277.130 190.926 M137.931 197.593 C 137.931 201.259,137.987 202.709,138.054 200.815 C 138.121 198.920,138.121 195.920,138.053 194.148 C 137.986 192.376,137.930 193.926,137.931 197.593 M152.352 195.556 C 152.352 197.287,152.415 197.995,152.493 197.130 C 152.571 196.264,152.571 194.847,152.493 193.981 C 152.415 193.116,152.352 193.824,152.352 195.556 M54.908 197.593 C 54.912 198.407,54.988 198.697,55.077 198.236 C 55.165 197.776,55.162 197.109,55.069 196.755 C 54.977 196.401,54.904 196.778,54.908 197.593 M342.316 197.963 C 342.320 198.778,342.396 199.068,342.484 198.607 C 342.573 198.146,342.569 197.479,342.477 197.125 C 342.384 196.771,342.312 197.148,342.316 197.963 M277.130 200.185 C 277.135 201.000,277.210 201.290,277.299 200.829 C 277.388 200.368,277.384 199.702,277.292 199.348 C 277.199 198.993,277.126 199.370,277.130 200.185 M54.908 207.593 C 54.912 208.407,54.988 208.697,55.077 208.236 C 55.165 207.776,55.162 207.109,55.069 206.755 C 54.977 206.401,54.904 206.778,54.908 207.593 M342.316 207.593 C 342.320 208.407,342.396 208.697,342.484 208.236 C 342.573 207.776,342.569 207.109,342.477 206.755 C 342.384 206.401,342.312 206.778,342.316 207.593 M256.838 244.907 L 255.000 246.852 256.944 245.014 C 258.751 243.306,259.059 242.963,258.782 242.963 C 258.724 242.963,257.849 243.838,256.838 244.907 M198.981 265.070 C 199.338 265.163,199.921 265.163,200.278 265.070 C 200.634 264.977,200.343 264.901,199.630 264.901 C 198.917 264.901,198.625 264.977,198.981 265.070 M205.843 265.457 C 206.714 265.535,208.048 265.534,208.806 265.454 C 209.565 265.375,208.852 265.311,207.222 265.312 C 205.593 265.313,204.972 265.379,205.843 265.457 M96.852 304.444 C 97.855 305.463,98.759 306.296,98.861 306.296 C 98.963 306.296,98.225 305.463,97.222 304.444 C 96.219 303.426,95.315 302.593,95.213 302.593 C 95.111 302.593,95.849 303.426,96.852 304.444 M300.171 304.537 L 298.333 306.481 300.278 304.644 C 301.347 303.633,302.222 302.758,302.222 302.699 C 302.222 302.423,301.879 302.730,300.171 304.537 M193.245 346.558 C 193.706 346.647,194.372 346.643,194.727 346.551 C 195.081 346.458,194.704 346.386,193.889 346.390 C 193.074 346.394,192.784 346.470,193.245 346.558 M202.875 346.558 C 203.335 346.647,204.002 346.643,204.356 346.551 C 204.710 346.458,204.333 346.386,203.519 346.390 C 202.704 346.394,202.414 346.470,202.875 346.558 " stroke="none" fill="#d4d2d7" fill-rule="evenodd"></path></g></svg>