<svg id="svg" version="1.1" xmlns="http://www.w3.org/2000/svg" xmlns:xlink="http://www.w3.org/1999/xlink" width="400" height="402.96296296296293" viewBox="0, 0, 400,402.96296296296293"><g id="svgg"><path id="path0" d="M190.926 53.550 C 190.315 53.632,187.981 53.881,185.741 54.103 C 100.890 62.503,40.294 143.819,55.576 228.776 C 70.806 313.437,154.994 367.330,239.074 346.243 C 314.190 327.404,362.331 252.197,348.498 175.298 C 337.710 115.327,290.978 67.958,230.741 55.937 C 220.836 53.960,198.050 52.594,190.926 53.550 M219.630 59.043 C 303.243 70.639,359.070 147.286,343.474 229.074 C 328.624 306.947,252.943 358.337,175.000 343.474 C 94.162 328.059,42.585 247.622,62.223 167.593 C 77.030 107.254,127.177 64.699,190.926 58.376 C 194.754 57.996,215.570 58.480,219.630 59.043 M97.407 194.259 L 97.407 256.296 161.635 256.296 L 225.863 256.296 226.112 259.167 C 227.857 279.261,232.348 290.000,239.007 290.000 C 243.988 290.000,247.525 281.075,249.616 263.226 C 250.017 259.805,250.444 256.847,250.565 256.652 C 250.691 256.448,253.389 256.296,256.883 256.296 C 264.070 256.296,263.294 255.631,264.227 262.593 C 266.039 276.111,269.910 287.294,273.408 289.110 C 280.193 292.635,287.307 280.154,288.136 263.270 C 288.517 255.507,287.591 256.296,296.318 256.296 L 303.704 256.296 303.704 238.188 C 303.704 222.397,303.786 219.707,304.344 217.169 C 305.222 213.176,305.224 205.755,304.348 202.906 C 303.756 200.981,303.704 198.049,303.704 166.517 L 303.704 132.222 200.556 132.222 L 97.407 132.222 97.407 194.259 M291.852 163.148 C 291.852 176.083,291.757 186.667,291.640 186.667 C 291.524 186.667,290.732 186.266,289.881 185.777 C 281.008 180.676,266.864 181.748,259.257 188.098 L 258.017 189.133 255.722 187.739 C 235.053 175.183,212.137 185.636,209.775 208.698 C 209.546 210.929,209.483 211.048,208.425 211.259 C 202.988 212.347,198.079 209.667,194.247 203.518 C 192.264 200.336,192.272 200.449,193.860 198.140 C 197.419 192.966,195.128 188.451,191.127 192.752 L 190.216 193.730 191.578 193.161 C 193.284 192.449,194.306 192.437,194.571 193.128 C 194.840 193.830,192.861 197.767,191.683 198.874 L 190.761 199.740 192.321 202.740 C 196.003 209.819,202.282 213.806,207.862 212.609 C 210.234 212.100,210.221 211.690,207.993 216.852 L 206.075 221.296 204.812 221.168 C 197.419 220.415,189.631 214.896,186.326 208.067 C 184.639 204.582,182.150 201.776,181.406 202.520 C 181.058 202.868,181.290 203.311,182.464 204.539 C 183.291 205.403,184.613 207.444,185.402 209.074 C 189.159 216.840,197.384 221.879,207.778 222.784 L 210.556 223.025 211.792 226.854 C 213.297 231.514,215.488 235.330,218.465 238.477 C 221.065 241.226,224.815 248.174,224.815 250.245 C 224.815 250.316,207.106 250.331,185.463 250.279 L 146.111 250.185 146.009 244.722 L 145.906 239.259 126.842 239.259 L 107.778 239.259 107.778 189.444 L 107.778 139.630 199.815 139.630 L 291.852 139.630 291.852 163.148 M197.444 180.776 L 195.813 181.499 196.674 182.415 C 197.147 182.918,197.615 183.250,197.713 183.151 C 197.906 182.958,199.273 179.983,199.149 180.026 C 199.108 180.041,198.340 180.378,197.444 180.776 M189.881 184.371 C 189.313 184.999,189.417 185.178,191.606 187.347 L 193.935 189.656 194.629 188.890 C 195.315 188.131,195.299 188.100,193.136 185.913 C 190.685 183.436,190.714 183.450,189.881 184.371 M245.370 185.533 C 248.609 186.372,254.152 188.913,256.465 190.619 L 257.931 191.700 260.539 189.736 C 274.832 178.976,296.135 185.595,302.116 202.654 C 305.109 211.192,301.192 226.124,292.465 239.445 C 288.816 245.015,286.296 253.939,286.296 261.294 C 286.296 273.589,281.415 286.313,276.201 287.606 C 272.542 288.514,268.528 278.418,266.258 262.597 C 264.489 250.266,260.782 245.594,254.632 247.942 C 250.581 249.489,248.804 253.213,247.735 262.394 C 245.162 284.489,240.294 292.959,234.609 285.237 C 231.332 280.787,229.478 272.904,227.777 256.179 C 226.963 248.188,224.577 242.291,220.197 237.445 C 207.275 223.150,209.142 197.157,223.754 187.931 C 229.220 184.480,237.677 183.542,245.370 185.533 M181.465 188.215 C 180.849 188.891,179.766 190.028,179.058 190.741 C 178.351 191.454,177.774 192.329,177.775 192.685 C 177.777 193.042,177.528 193.333,177.222 193.333 C 176.353 193.333,175.185 194.718,175.185 195.749 C 175.185 197.167,178.914 200.900,179.990 200.559 C 180.506 200.395,181.026 200.514,181.444 200.892 C 182.043 201.434,182.162 201.408,182.963 200.555 L 183.833 199.630 182.990 198.733 L 182.147 197.836 183.308 197.235 C 184.083 196.835,184.542 196.270,184.688 195.540 C 184.829 194.836,185.135 194.444,185.544 194.444 C 188.597 194.444,187.503 189.788,183.978 187.779 L 182.586 186.986 181.465 188.215 M184.395 188.719 C 186.827 190.765,187.468 192.879,185.909 193.713 C 184.030 194.719,180.298 190.031,181.724 188.455 C 182.544 187.549,183.066 187.600,184.395 188.719 M182.539 192.756 C 184.722 195.064,184.713 195.036,183.639 196.180 C 182.504 197.388,182.198 197.290,180.054 195.022 C 177.870 192.714,177.879 192.741,178.953 191.598 C 180.089 190.389,180.394 190.488,182.539 192.756 M264.450 192.601 C 263.713 192.775,262.641 193.471,261.950 194.225 C 260.667 195.625,260.243 196.847,261.389 195.843 C 263.542 193.955,267.267 193.496,269.728 194.816 C 270.489 195.223,271.111 195.421,271.111 195.255 C 271.111 194.635,268.973 192.935,267.752 192.585 C 266.333 192.178,266.249 192.179,264.450 192.601 M244.815 193.358 C 243.760 193.803,242.314 195.074,241.819 195.992 C 241.563 196.468,241.883 196.390,243.187 195.661 C 245.984 194.098,249.172 194.388,251.389 196.407 C 252.355 197.287,252.440 197.051,251.686 195.592 C 250.638 193.566,247.072 192.406,244.815 193.358 M179.683 195.503 C 181.622 197.442,181.889 198.405,180.767 199.420 C 179.782 200.312,178.840 199.924,177.050 197.890 C 175.355 195.965,175.251 195.489,176.296 194.444 C 177.351 193.389,177.668 193.488,179.683 195.503 M175.066 199.186 C 174.498 199.813,174.602 199.992,176.787 202.158 L 179.113 204.463 179.921 203.603 L 180.729 202.743 178.594 200.631 C 176.259 198.320,175.961 198.198,175.066 199.186 M263.148 201.479 C 259.565 201.930,258.282 202.701,257.442 204.908 C 256.922 206.276,255.062 206.340,254.029 205.027 C 252.026 202.481,241.999 202.366,235.455 204.815 C 229.781 206.938,228.785 211.127,231.724 220.508 C 233.689 226.777,234.410 227.292,240.666 226.888 C 253.774 226.040,256.009 224.199,255.904 214.341 C 255.833 207.649,256.267 207.613,256.473 214.294 C 256.635 219.573,256.879 220.417,258.676 221.929 C 261.846 224.596,276.177 226.389,278.040 224.352 C 280.870 221.257,283.271 209.770,281.717 206.764 C 279.791 203.040,270.888 200.506,263.148 201.479 M274.363 205.478 C 275.643 205.889,277.290 206.684,278.024 207.243 L 279.358 208.261 279.144 210.890 C 278.896 213.955,277.685 218.745,276.641 220.792 C 275.775 222.489,274.391 222.634,268.148 221.681 C 259.810 220.408,259.530 220.108,259.690 212.624 C 259.868 204.310,259.759 204.424,267.407 204.615 C 270.781 204.699,272.668 204.933,274.363 205.478 M250.902 206.658 C 253.474 207.635,253.857 219.903,251.364 221.436 C 249.100 222.827,239.059 224.531,236.991 223.874 C 235.253 223.323,232.396 212.650,233.329 210.196 C 234.470 207.197,246.139 204.847,250.902 206.658 M265.331 210.563 C 264.118 212.414,265.422 216.105,267.198 215.850 C 268.928 215.601,269.284 211.877,267.727 210.320 C 266.787 209.379,266.059 209.453,265.331 210.563 M245.732 212.368 C 244.397 214.407,244.871 217.465,246.560 217.708 C 248.211 217.946,249.510 214.152,248.372 212.415 C 247.602 211.239,246.485 211.219,245.732 212.368 M266.296 231.802 C 266.296 231.978,266.655 232.578,267.093 233.135 L 267.890 234.148 267.118 235.736 C 263.838 242.488,255.031 244.398,249.727 239.509 C 247.503 237.459,247.243 236.891,248.002 235.733 C 248.801 234.513,248.363 234.075,247.389 235.120 C 246.944 235.597,246.191 235.926,245.541 235.926 C 244.813 235.926,244.444 236.113,244.444 236.481 C 244.444 236.846,244.809 237.037,245.506 237.037 C 246.332 237.037,246.783 237.361,247.531 238.492 C 252.114 245.417,263.697 244.250,267.837 236.446 C 268.588 235.030,268.861 234.815,269.907 234.815 C 270.569 234.815,271.111 234.648,271.111 234.444 C 271.111 234.241,270.687 234.074,270.168 234.074 C 269.235 234.074,267.407 232.615,267.407 231.869 C 267.407 231.656,267.157 231.481,266.852 231.481 C 266.546 231.481,266.296 231.626,266.296 231.802 M291.852 247.778 C 291.852 250.318,291.832 250.370,290.896 250.370 C 289.828 250.370,289.855 249.492,291.011 246.574 C 291.765 244.672,291.852 244.796,291.852 247.778 M258.704 249.801 C 259.763 250.286,259.685 250.310,257.037 250.310 C 254.389 250.310,254.311 250.286,255.370 249.801 C 255.981 249.522,256.731 249.293,257.037 249.293 C 257.343 249.293,258.093 249.522,258.704 249.801 " stroke="none" fill="#5d26b6" fill-rule="evenodd"></path><path id="path1" d="M193.889 58.378 C 74.796 66.193,15.617 205.597,93.078 295.854 C 168.369 383.583,312.309 349.978,341.304 237.903 C 365.544 144.207,289.894 52.079,193.889 58.378 M303.704 166.121 C 303.704 199.733,303.711 200.045,304.508 203.065 C 305.566 207.072,305.559 212.178,304.488 217.189 C 303.751 220.640,303.704 221.928,303.704 238.763 L 303.704 256.667 296.336 256.667 C 290.290 256.667,288.932 256.762,288.765 257.196 C 288.653 257.487,288.458 260.029,288.331 262.844 C 287.825 274.069,285.743 281.030,281.256 286.506 C 273.839 295.558,267.245 286.133,263.894 261.687 C 263.561 259.254,263.205 257.129,263.103 256.965 C 262.865 256.579,250.842 256.573,250.604 256.959 C 250.504 257.120,250.155 259.819,249.827 262.957 C 247.934 281.097,244.272 290.000,238.705 290.000 C 232.214 290.000,227.324 278.507,226.071 260.309 L 225.820 256.667 161.614 256.667 L 97.407 256.667 97.407 194.444 L 97.407 132.222 200.556 132.222 L 303.704 132.222 303.704 166.121 M108.148 189.444 L 108.148 239.259 127.222 239.259 L 146.296 239.259 146.296 244.630 L 146.296 250.000 185.377 250.000 L 224.459 250.000 224.228 248.981 C 223.598 246.190,220.721 241.205,218.025 238.232 C 214.975 234.869,212.506 230.393,211.113 225.702 L 210.331 223.071 207.110 222.838 C 196.837 222.096,188.586 216.666,184.607 208.028 C 184.122 206.974,183.092 205.425,182.318 204.586 L 180.912 203.060 179.468 204.308 C 177.655 205.876,177.957 205.947,175.372 203.335 L 173.175 201.115 174.712 199.539 L 176.248 197.963 175.532 197.089 C 174.407 195.716,175.581 192.963,177.292 192.963 C 177.559 192.963,177.778 192.659,177.778 192.287 C 177.778 191.545,179.233 190.000,179.931 190.000 C 180.173 190.000,180.370 189.772,180.370 189.494 C 180.370 187.596,183.032 186.421,184.259 187.778 C 185.225 188.845,185.362 188.783,188.308 185.926 C 189.779 184.500,191.101 183.333,191.246 183.333 C 191.391 183.333,193.182 182.567,195.225 181.630 C 197.268 180.694,199.028 180.016,199.137 180.124 C 199.595 180.583,195.137 188.736,193.791 189.902 L 192.407 191.100 193.722 191.106 C 196.829 191.119,196.690 194.873,193.424 199.163 L 192.511 200.362 194.201 203.074 C 197.581 208.497,201.540 211.261,205.962 211.284 C 208.966 211.299,209.629 210.842,209.632 208.751 C 209.646 200.396,216.699 188.993,224.259 185.101 C 232.923 180.642,246.579 181.716,255.743 187.578 L 257.830 188.913 259.629 187.593 C 268.547 181.046,280.164 180.539,291.204 186.215 C 291.356 186.294,291.481 175.844,291.481 162.994 L 291.481 139.630 199.815 139.630 L 108.148 139.630 108.148 189.444 M272.987 184.805 C 268.032 185.583,262.146 188.234,259.177 191.023 L 258.169 191.971 256.185 190.653 C 241.783 181.091,224.645 183.125,216.685 195.342 C 209.151 206.905,210.591 226.744,219.670 236.470 C 225.513 242.730,227.191 247.578,228.709 262.593 C 230.285 278.186,234.175 287.770,238.931 287.776 C 242.321 287.781,245.521 278.899,247.205 264.815 C 248.598 253.160,249.775 250.152,253.736 248.132 C 260.097 244.887,264.572 249.722,266.284 261.689 C 267.985 273.585,270.745 282.932,273.534 286.247 C 277.958 291.505,285.905 277.205,285.933 263.933 C 285.953 254.548,288.288 245.390,292.123 239.652 C 301.016 226.345,304.925 211.198,301.762 202.294 C 297.748 190.995,284.569 182.985,272.987 184.805 M181.903 188.649 C 180.854 189.766,180.850 189.752,182.828 191.868 C 184.564 193.723,185.411 194.070,186.222 193.259 C 186.984 192.498,186.717 191.539,185.310 189.982 C 183.371 187.835,182.857 187.634,181.903 188.649 M179.274 191.467 C 178.172 192.568,178.306 192.963,180.515 195.145 L 182.512 197.117 183.293 196.337 C 184.483 195.146,183.633 193.277,181.072 191.453 L 180.029 190.711 179.274 191.467 M269.149 192.948 C 270.231 193.608,271.481 195.374,271.481 196.241 C 271.481 196.435,270.974 196.119,270.353 195.539 C 268.222 193.549,264.198 193.753,261.662 195.980 C 260.147 197.309,259.922 196.707,261.211 194.777 C 262.847 192.328,266.683 191.445,269.149 192.948 M191.296 193.512 C 189.469 194.254,188.442 195.072,185.520 198.113 L 181.966 201.813 183.433 203.221 C 184.240 203.996,185.387 205.700,185.982 207.009 C 189.122 213.914,194.626 218.475,202.139 220.396 C 205.785 221.329,205.876 221.319,206.471 219.907 C 206.750 219.245,207.562 217.342,208.277 215.679 L 209.575 212.654 206.883 212.857 C 200.823 213.316,195.482 209.466,191.683 201.902 L 190.685 199.915 191.773 198.561 C 193.914 195.898,195.143 192.579,193.981 192.601 C 193.727 192.606,192.519 193.016,191.296 193.512 M250.591 194.091 C 251.575 194.999,252.794 197.330,252.459 197.664 C 252.362 197.762,252.089 197.479,251.852 197.037 C 250.424 194.368,244.662 194.201,241.949 196.749 C 240.916 197.720,240.873 197.247,241.850 195.645 C 243.567 192.829,248.309 191.986,250.591 194.091 M176.370 194.519 C 175.482 195.406,175.916 196.556,177.804 198.322 L 179.683 200.079 180.582 199.234 C 181.774 198.115,181.755 198.039,179.764 195.910 C 178.029 194.055,177.181 193.708,176.370 194.519 M272.640 201.698 C 282.137 203.499,284.062 206.999,281.279 217.399 C 279.301 224.789,278.690 225.387,273.199 225.319 C 263.669 225.199,257.723 222.971,256.585 219.092 L 256.146 217.593 255.940 219.705 C 255.685 222.328,254.175 224.076,251.206 225.187 C 246.008 227.132,235.599 227.753,234.182 226.204 C 232.197 224.033,230.396 218.060,230.101 212.669 L 229.892 208.857 231.751 207.065 C 236.509 202.479,252.297 201.173,254.446 205.189 C 255.126 206.458,256.548 206.130,257.373 204.512 C 259.036 201.253,264.745 200.200,272.640 201.698 M262.845 204.803 C 260.922 205.175,260.445 205.761,259.963 208.344 C 259.446 211.112,259.693 218.258,260.332 219.028 C 261.445 220.369,268.028 221.852,272.867 221.852 L 275.968 221.852 276.682 220.236 C 279.009 214.975,279.579 208.860,277.874 207.436 C 275.241 205.237,267.559 203.891,262.845 204.803 M240.926 206.672 C 235.906 207.574,233.329 209.246,233.341 211.593 C 233.352 213.587,234.513 218.817,235.569 221.628 L 236.390 223.812 240.510 223.586 C 245.021 223.339,250.031 222.232,251.481 221.161 C 253.029 220.019,253.057 209.262,251.518 207.361 C 250.760 206.425,244.549 206.021,240.926 206.672 M268.529 206.933 C 273.793 210.594,272.498 220.640,266.783 220.478 C 261.790 220.337,259.468 210.543,263.618 207.131 C 264.857 206.113,267.212 206.018,268.529 206.933 M249.462 208.681 C 251.758 210.186,252.449 215.755,250.727 218.875 C 247.505 224.711,241.481 222.671,241.481 215.744 C 241.481 209.900,245.668 206.195,249.462 208.681 M256.012 210.370 C 256.012 211.083,256.088 211.375,256.181 211.019 C 256.274 210.662,256.274 210.079,256.181 209.722 C 256.088 209.366,256.012 209.657,256.012 210.370 M267.963 232.316 C 268.473 233.125,269.137 233.594,270.093 233.820 C 271.965 234.262,272.036 235.331,270.179 235.114 C 268.946 234.970,268.820 235.063,267.815 236.843 C 263.435 244.604,251.358 245.583,247.316 238.505 C 246.614 237.275,246.290 237.042,245.278 237.040 C 244.456 237.038,244.074 236.861,244.074 236.481 C 244.074 236.111,244.445 235.926,245.189 235.926 C 245.845 235.926,246.564 235.621,246.938 235.185 C 247.287 234.778,247.804 234.444,248.088 234.444 C 248.434 234.444,248.529 234.689,248.377 235.185 C 248.251 235.593,248.058 236.218,247.949 236.574 C 247.286 238.729,252.713 242.035,256.841 241.991 C 262.587 241.930,269.151 236.272,266.942 233.284 C 266.255 232.355,266.250 231.092,266.933 231.125 C 267.092 231.133,267.556 231.669,267.963 232.316 M290.799 247.728 C 290.236 249.608,290.258 250.000,290.926 250.000 C 291.346 250.000,291.481 249.547,291.481 248.148 C 291.481 245.921,291.363 245.848,290.799 247.728 M256.204 249.891 C 256.662 249.979,257.412 249.979,257.870 249.891 C 258.329 249.803,257.954 249.731,257.037 249.731 C 256.120 249.731,255.745 249.803,256.204 249.891 " stroke="none" fill="#fbfbfb" fill-rule="evenodd"></path><path id="path2" d="M107.958 189.444 C 107.958 216.944,108.002 228.249,108.056 214.566 C 108.109 200.883,108.109 178.383,108.056 164.566 C 108.002 150.749,107.958 161.944,107.958 189.444 M291.656 163.148 C 291.656 176.185,291.702 181.465,291.759 174.881 C 291.816 168.296,291.816 157.630,291.759 151.177 C 291.702 144.724,291.656 150.111,291.656 163.148 M195.774 181.428 C 195.666 181.602,196.032 182.143,196.585 182.631 L 197.593 183.519 196.756 182.565 C 196.296 182.041,196.032 181.499,196.169 181.361 C 196.307 181.224,196.318 181.111,196.195 181.111 C 196.071 181.111,195.882 181.254,195.774 181.428 M191.296 187.407 C 192.506 188.630,193.579 189.630,193.681 189.630 C 193.782 189.630,192.876 188.630,191.667 187.407 C 190.457 186.185,189.384 185.185,189.282 185.185 C 189.181 185.185,190.087 186.185,191.296 187.407 M183.704 188.264 C 183.704 188.328,184.245 188.869,184.907 189.468 L 186.111 190.556 185.023 189.352 C 184.009 188.230,183.704 187.978,183.704 188.264 M176.481 202.222 C 177.691 203.444,178.764 204.444,178.866 204.444 C 178.968 204.444,178.061 203.444,176.852 202.222 C 175.642 201.000,174.569 200.000,174.468 200.000 C 174.366 200.000,175.272 201.000,176.481 202.222 M245.283 206.192 C 245.846 206.277,246.679 206.275,247.135 206.187 C 247.590 206.099,247.130 206.029,246.111 206.032 C 245.093 206.035,244.720 206.107,245.283 206.192 M237.690 223.966 C 238.150 224.054,238.817 224.051,239.171 223.958 C 239.525 223.865,239.148 223.793,238.333 223.797 C 237.519 223.801,237.229 223.877,237.690 223.966 M146.074 244.630 C 146.075 247.685,146.132 248.886,146.202 247.298 C 146.271 245.710,146.271 243.210,146.201 241.742 C 146.130 240.275,146.074 241.574,146.074 244.630 M255.833 243.224 C 256.292 243.313,257.042 243.313,257.500 243.224 C 257.958 243.136,257.583 243.064,256.667 243.064 C 255.750 243.064,255.375 243.136,255.833 243.224 M291.606 247.778 C 291.606 249.306,291.671 249.931,291.751 249.167 C 291.831 248.403,291.831 247.153,291.751 246.389 C 291.671 245.625,291.606 246.250,291.606 247.778 M129.566 256.574 C 147.356 256.627,176.356 256.627,194.011 256.574 C 211.666 256.521,197.111 256.477,161.667 256.477 C 126.222 256.477,111.777 256.521,129.566 256.574 M253.814 256.572 C 255.607 256.640,258.440 256.640,260.111 256.572 C 261.781 256.503,260.315 256.447,256.852 256.448 C 253.389 256.448,252.022 256.504,253.814 256.572 M292.500 256.573 C 294.588 256.639,298.005 256.639,300.093 256.573 C 302.181 256.507,300.472 256.453,296.296 256.453 C 292.120 256.453,290.412 256.507,292.500 256.573 M286.041 263.519 C 286.043 264.741,286.112 265.196,286.194 264.530 C 286.277 263.865,286.275 262.865,286.191 262.308 C 286.106 261.752,286.039 262.296,286.041 263.519 " stroke="none" fill="#885ec9" fill-rule="evenodd"></path><path id="path3" d="M263.618 207.131 C 259.468 210.543,261.790 220.337,266.783 220.478 C 272.498 220.640,273.793 210.594,268.529 206.933 C 267.212 206.018,264.857 206.113,263.618 207.131 M245.370 208.286 C 239.765 210.850,240.241 222.222,245.954 222.222 C 252.524 222.222,254.016 209.093,247.573 207.968 C 246.973 207.864,245.981 208.007,245.370 208.286 M267.757 210.350 C 269.326 211.918,268.952 215.598,267.198 215.850 C 265.422 216.105,264.118 212.414,265.331 210.563 C 266.065 209.444,266.787 209.380,267.757 210.350 M248.373 212.415 C 249.537 214.192,248.363 217.778,246.618 217.778 C 245.553 217.778,244.685 216.129,244.936 214.583 C 245.403 211.704,247.174 210.586,248.373 212.415 " stroke="none" fill="#6be3cb" fill-rule="evenodd"></path><path id="path4" d="M194.167 58.403 C 194.523 58.497,195.106 58.497,195.463 58.403 C 195.819 58.310,195.528 58.234,194.815 58.234 C 194.102 58.234,193.810 58.310,194.167 58.403 M208.611 58.403 C 208.968 58.497,209.551 58.497,209.907 58.403 C 210.264 58.310,209.972 58.234,209.259 58.234 C 208.546 58.234,208.255 58.310,208.611 58.403 M103.501 97.130 L 102.037 98.704 103.611 97.240 C 105.075 95.878,105.355 95.556,105.075 95.556 C 105.015 95.556,104.306 96.264,103.501 97.130 M300.185 97.037 C 300.981 97.852,301.715 98.519,301.817 98.519 C 301.919 98.519,301.351 97.852,300.556 97.037 C 299.760 96.222,299.026 95.556,298.924 95.556 C 298.822 95.556,299.390 96.222,300.185 97.037 M96.834 103.796 L 95.370 105.370 96.944 103.906 C 98.408 102.545,98.689 102.222,98.408 102.222 C 98.348 102.222,97.640 102.931,96.834 103.796 M306.852 103.704 C 307.647 104.519,308.382 105.185,308.484 105.185 C 308.586 105.185,308.018 104.519,307.222 103.704 C 306.427 102.889,305.692 102.222,305.590 102.222 C 305.489 102.222,306.056 102.889,306.852 103.704 M193.073 182.579 L 190.775 183.561 193.066 185.851 L 195.356 188.142 194.530 188.968 L 193.704 189.794 191.389 187.507 L 189.074 185.220 187.315 186.890 C 185.233 188.865,185.274 188.655,186.667 190.242 C 188.126 191.904,187.296 194.815,185.363 194.815 C 185.090 194.815,184.813 195.184,184.748 195.635 C 184.683 196.087,184.112 196.804,183.479 197.229 L 182.328 198.003 183.071 198.909 L 183.814 199.815 186.660 197.037 C 190.088 193.692,190.578 193.303,190.946 193.633 C 191.102 193.774,191.119 193.696,190.984 193.460 C 190.848 193.221,191.245 192.604,191.879 192.071 C 192.507 191.543,192.882 191.109,192.714 191.106 C 192.545 191.103,193.029 190.561,193.788 189.902 C 194.980 188.867,198.591 182.646,197.668 183.216 C 197.492 183.325,196.902 183.005,196.359 182.505 L 195.370 181.597 193.073 182.579 M236.204 182.490 C 236.866 182.572,237.949 182.572,238.611 182.490 C 239.273 182.408,238.731 182.341,237.407 182.341 C 236.083 182.341,235.542 182.408,236.204 182.490 M236.581 184.713 C 237.246 184.795,238.246 184.794,238.803 184.709 C 239.359 184.625,238.815 184.557,237.593 184.559 C 236.370 184.561,235.915 184.630,236.581 184.713 M219.610 191.389 L 218.333 192.778 219.722 191.501 C 221.015 190.313,221.281 190.000,220.999 190.000 C 220.937 190.000,220.312 190.625,219.610 191.389 M295.741 192.963 C 296.536 193.778,297.271 194.444,297.373 194.444 C 297.474 194.444,296.907 193.778,296.111 192.963 C 295.315 192.148,294.581 191.481,294.479 191.481 C 294.377 191.481,294.945 192.148,295.741 192.963 M58.234 194.815 C 58.234 195.528,58.310 195.819,58.403 195.463 C 58.497 195.106,58.497 194.523,58.403 194.167 C 58.310 193.810,58.234 194.102,58.234 194.815 M180.185 195.185 C 180.981 196.000,181.715 196.667,181.817 196.667 C 181.919 196.667,181.351 196.000,180.556 195.185 C 179.760 194.370,179.026 193.704,178.924 193.704 C 178.822 193.704,179.390 194.370,180.185 195.185 M345.641 194.815 C 345.641 195.528,345.718 195.819,345.811 195.463 C 345.904 195.106,345.904 194.523,345.811 194.167 C 345.718 193.810,345.641 194.102,345.641 194.815 M178.519 194.560 C 178.519 194.624,179.060 195.166,179.722 195.764 L 180.926 196.852 179.838 195.648 C 178.824 194.526,178.519 194.274,178.519 194.560 M179.234 201.204 C 180.527 202.574,180.982 202.853,181.381 202.522 C 181.778 202.193,182.257 202.454,183.609 203.736 C 184.996 205.052,184.907 204.902,183.148 202.963 C 181.444 201.085,180.767 200.580,180.070 200.669 C 179.579 200.731,178.821 200.485,178.385 200.124 C 177.949 199.762,178.331 200.248,179.234 201.204 M173.693 200.569 C 172.908 201.514,177.391 205.882,178.386 205.142 C 179.030 204.663,178.916 204.480,176.628 202.304 C 174.460 200.242,174.127 200.045,173.693 200.569 M182.593 205.000 C 183.284 205.713,183.932 206.296,184.034 206.296 C 184.136 206.296,183.654 205.713,182.963 205.000 C 182.272 204.287,181.623 203.704,181.521 203.704 C 181.420 203.704,181.902 204.287,182.593 205.000 M197.407 207.593 C 198.098 208.306,198.747 208.889,198.849 208.889 C 198.951 208.889,198.469 208.306,197.778 207.593 C 197.087 206.880,196.438 206.296,196.336 206.296 C 196.234 206.296,196.716 206.880,197.407 207.593 M195.185 207.523 C 195.185 207.587,195.727 208.129,196.389 208.727 L 197.593 209.815 196.505 208.611 C 195.491 207.489,195.185 207.237,195.185 207.523 M58.234 209.259 C 58.234 209.972,58.310 210.264,58.403 209.907 C 58.497 209.551,58.497 208.968,58.403 208.611 C 58.310 208.255,58.234 208.546,58.234 209.259 M303.056 209.444 C 303.060 210.259,303.136 210.549,303.225 210.088 C 303.314 209.628,303.310 208.961,303.217 208.607 C 303.125 208.253,303.052 208.630,303.056 209.444 M305.286 209.630 C 305.286 210.546,305.358 210.921,305.447 210.463 C 305.535 210.005,305.535 209.255,305.447 208.796 C 305.358 208.338,305.286 208.713,305.286 209.630 M345.641 209.259 C 345.641 209.972,345.718 210.264,345.811 209.907 C 345.904 209.551,345.904 208.968,345.811 208.611 C 345.718 208.255,345.641 208.546,345.641 209.259 M211.592 212.593 C 211.592 213.713,211.662 214.171,211.747 213.611 C 211.832 213.051,211.832 212.134,211.747 211.574 C 211.662 211.014,211.592 211.472,211.592 212.593 M255.961 214.444 C 255.948 216.176,256.084 217.825,256.264 218.109 C 256.461 218.419,256.520 217.308,256.413 215.331 C 256.176 210.945,255.990 210.579,255.961 214.444 M252.720 214.630 C 252.721 216.259,252.786 216.880,252.864 216.009 C 252.942 215.138,252.941 213.804,252.862 213.046 C 252.782 212.287,252.718 213.000,252.720 214.630 M274.074 221.852 L 272.037 222.101 273.960 222.162 C 275.017 222.195,275.985 222.056,276.111 221.852 C 276.237 221.648,276.289 221.509,276.226 221.542 C 276.163 221.575,275.194 221.715,274.074 221.852 M272.870 225.453 C 273.532 225.535,274.616 225.535,275.278 225.453 C 275.940 225.371,275.398 225.304,274.074 225.304 C 272.750 225.304,272.208 225.371,272.870 225.453 M251.643 249.722 L 250.556 250.926 251.759 249.838 C 252.421 249.240,252.963 248.698,252.963 248.634 C 252.963 248.348,252.657 248.600,251.643 249.722 M290.006 249.722 C 290.002 250.158,290.273 250.361,290.833 250.341 C 291.390 250.322,291.482 250.242,291.111 250.100 C 290.806 249.984,290.433 249.706,290.283 249.482 C 290.116 249.230,290.009 249.322,290.006 249.722 M254.942 250.093 C 254.848 250.245,255.809 250.370,257.077 250.370 C 258.345 250.370,259.279 250.267,259.152 250.140 C 258.818 249.806,255.145 249.764,254.942 250.093 M165.862 250.278 C 176.725 250.332,194.391 250.332,205.121 250.278 C 215.851 250.223,206.963 250.179,185.370 250.179 C 163.778 250.179,154.999 250.223,165.862 250.278 M278.680 285.648 L 277.593 286.852 278.796 285.764 C 279.918 284.750,280.170 284.444,279.884 284.444 C 279.820 284.444,279.279 284.986,278.680 285.648 M96.852 300.370 C 97.647 301.185,98.382 301.852,98.484 301.852 C 98.586 301.852,98.018 301.185,97.222 300.370 C 96.427 299.556,95.692 298.889,95.590 298.889 C 95.489 298.889,96.056 299.556,96.852 300.370 M306.834 300.463 L 305.370 302.037 306.944 300.573 C 307.810 299.768,308.519 299.059,308.519 298.999 C 308.519 298.719,308.196 298.999,306.834 300.463 M103.519 307.037 C 104.314 307.852,105.048 308.519,105.150 308.519 C 105.252 308.519,104.685 307.852,103.889 307.037 C 103.093 306.222,102.359 305.556,102.257 305.556 C 102.155 305.556,102.723 306.222,103.519 307.037 M300.168 307.130 L 298.704 308.704 300.278 307.240 C 301.742 305.878,302.022 305.556,301.742 305.556 C 301.681 305.556,300.973 306.264,300.168 307.130 M194.167 345.811 C 194.523 345.904,195.106 345.904,195.463 345.811 C 195.819 345.718,195.528 345.641,194.815 345.641 C 194.102 345.641,193.810 345.718,194.167 345.811 M208.611 345.811 C 208.968 345.904,209.551 345.904,209.907 345.811 C 210.264 345.718,209.972 345.641,209.259 345.641 C 208.546 345.641,208.255 345.718,208.611 345.811 " stroke="none" fill="#9d84d4" fill-rule="evenodd"></path></g></svg>