<svg id="svg" version="1.1" xmlns="http://www.w3.org/2000/svg" xmlns:xlink="http://www.w3.org/1999/xlink" width="400" height="402.96296296296293" viewBox="0, 0, 400,402.96296296296293"><g id="svgg"><path id="path0" d="M195.000 49.476 C 194.389 49.558,192.056 49.807,189.815 50.029 C 104.964 58.429,44.368 139.745,59.650 224.702 C 74.880 309.362,159.068 363.256,243.148 342.169 C 318.264 323.330,366.405 248.123,352.572 171.224 C 341.784 111.253,295.052 63.884,234.815 51.863 C 224.910 49.886,202.124 48.520,195.000 49.476 M222.963 54.976 C 306.166 65.656,362.344 141.710,347.733 223.889 C 337.390 282.068,290.046 329.348,231.852 339.614 C 130.700 357.458,43.956 267.817,65.391 167.593 C 80.794 95.572,150.594 45.686,222.963 54.976 M173.746 149.368 L 139.960 180.185 148.869 180.284 L 157.778 180.384 157.778 225.007 L 157.778 269.630 176.296 269.630 L 194.815 269.630 194.815 251.667 L 194.815 233.704 207.778 233.704 L 220.741 233.704 220.742 245.278 C 220.742 251.644,220.852 259.727,220.985 263.241 L 221.228 269.630 239.318 269.630 L 257.407 269.630 257.407 225.007 L 257.407 180.384 266.366 180.284 L 275.324 180.185 241.854 149.630 C 223.445 132.824,208.192 118.957,207.958 118.813 C 207.700 118.655,194.175 130.735,173.746 149.368 " stroke="none" fill="#6124b4" fill-rule="evenodd"></path><path id="path1" d="M197.767 54.449 C 83.224 61.550,22.402 193.203,91.434 284.615 C 158.441 373.348,296.826 355.213,339.276 252.136 C 379.214 155.161,302.475 47.958,197.767 54.449 M243.109 150.529 L 276.034 180.556 266.907 180.655 L 257.781 180.754 257.687 225.284 L 257.593 269.815 239.213 269.911 L 220.832 270.007 220.558 252.040 L 220.283 234.074 207.505 234.074 L 194.727 234.074 195.002 252.037 L 195.277 270.000 176.527 270.000 L 157.778 270.000 157.778 225.370 L 157.778 180.741 148.673 180.741 C 143.231 180.741,139.618 180.602,139.691 180.397 C 139.759 180.208,155.065 166.144,173.704 149.144 L 207.593 118.234 208.889 119.368 C 209.602 119.992,225.001 134.014,243.109 150.529 " stroke="none" fill="#fbfbfc" fill-rule="evenodd"></path><path id="path2" d="M274.965 179.943 C 275.162 180.261,272.959 180.370,266.318 180.370 L 257.407 180.370 257.498 225.093 L 257.590 269.815 257.685 225.278 L 257.781 180.741 266.668 180.741 C 274.934 180.741,276.412 180.573,275.128 179.779 C 274.863 179.616,274.801 179.678,274.965 179.943 M144.188 180.647 C 146.797 180.711,150.964 180.711,153.447 180.647 C 155.931 180.583,153.796 180.531,148.704 180.531 C 143.611 180.531,141.579 180.584,144.188 180.647 M62.323 190.000 C 62.323 190.917,62.395 191.292,62.484 190.833 C 62.572 190.375,62.572 189.625,62.484 189.167 C 62.395 188.708,62.323 189.083,62.323 190.000 M62.323 205.926 C 62.323 206.843,62.395 207.218,62.484 206.759 C 62.572 206.301,62.572 205.551,62.484 205.093 C 62.395 204.634,62.323 205.009,62.323 205.926 M207.489 233.981 L 220.348 234.084 220.464 238.616 L 220.581 243.148 220.661 238.426 L 220.741 233.704 207.685 233.791 L 194.630 233.879 207.489 233.981 M194.893 265.271 L 194.815 269.617 185.648 269.723 L 176.481 269.828 185.660 269.914 C 192.961 269.982,194.876 269.900,195.025 269.513 C 195.128 269.246,195.158 267.204,195.092 264.976 L 194.972 260.926 194.893 265.271 M220.907 265.462 L 220.926 269.815 230.000 269.825 L 239.074 269.834 230.104 269.725 L 221.135 269.617 221.012 265.363 L 220.889 261.110 220.907 265.462 " stroke="none" fill="#ac94dc" fill-rule="evenodd"></path><path id="path3" d="" stroke="none" fill="#bba0de" fill-rule="evenodd"></path><path id="path4" d="M200.652 54.336 C 201.113 54.425,201.780 54.421,202.134 54.329 C 202.488 54.236,202.111 54.163,201.296 54.167 C 200.481 54.172,200.192 54.247,200.652 54.336 M210.282 54.336 C 210.743 54.425,211.409 54.421,211.764 54.329 C 212.118 54.236,211.741 54.163,210.926 54.167 C 210.111 54.172,209.821 54.247,210.282 54.336 M104.245 96.389 L 102.407 98.333 104.352 96.495 C 106.159 94.788,106.466 94.444,106.190 94.444 C 106.131 94.444,105.256 95.319,104.245 96.389 M307.593 96.296 C 308.596 97.315,309.500 98.148,309.602 98.148 C 309.704 98.148,308.966 97.315,307.963 96.296 C 306.960 95.278,306.056 94.444,305.954 94.444 C 305.852 94.444,306.589 95.278,307.593 96.296 M62.316 192.778 C 62.320 193.593,62.396 193.882,62.484 193.422 C 62.573 192.961,62.569 192.294,62.477 191.940 C 62.384 191.586,62.312 191.963,62.316 192.778 M349.723 193.148 C 349.727 193.963,349.803 194.253,349.892 193.792 C 349.980 193.331,349.977 192.665,349.884 192.310 C 349.791 191.956,349.719 192.333,349.723 193.148 M62.316 202.778 C 62.320 203.593,62.396 203.882,62.484 203.422 C 62.573 202.961,62.569 202.294,62.477 201.940 C 62.384 201.586,62.312 201.963,62.316 202.778 M349.723 202.778 C 349.727 203.593,349.803 203.882,349.892 203.422 C 349.980 202.961,349.977 202.294,349.884 201.940 C 349.791 201.586,349.719 201.963,349.723 202.778 M220.513 247.407 C 220.513 249.954,220.572 250.995,220.645 249.722 C 220.717 248.449,220.717 246.366,220.645 245.093 C 220.572 243.819,220.513 244.861,220.513 247.407 M194.958 256.296 C 194.958 258.843,195.017 259.884,195.089 258.611 C 195.161 257.338,195.161 255.255,195.089 253.981 C 195.017 252.708,194.958 253.750,194.958 256.296 M162.315 269.906 C 164.912 269.970,169.162 269.970,171.759 269.906 C 174.356 269.843,172.231 269.791,167.037 269.791 C 161.843 269.791,159.718 269.843,162.315 269.906 M243.818 269.907 C 246.427 269.970,250.594 269.970,253.077 269.906 C 255.561 269.842,253.426 269.790,248.333 269.790 C 243.241 269.790,241.209 269.843,243.818 269.907 M104.259 299.630 C 105.262 300.648,106.167 301.481,106.268 301.481 C 106.370 301.481,105.633 300.648,104.630 299.630 C 103.626 298.611,102.722 297.778,102.620 297.778 C 102.519 297.778,103.256 298.611,104.259 299.630 M307.579 299.722 L 305.741 301.667 307.685 299.829 C 309.492 298.121,309.799 297.778,309.523 297.778 C 309.465 297.778,308.590 298.653,307.579 299.722 M200.652 341.743 C 201.113 341.832,201.780 341.829,202.134 341.736 C 202.488 341.643,202.111 341.571,201.296 341.575 C 200.481 341.579,200.192 341.655,200.652 341.743 M210.282 341.743 C 210.743 341.832,211.409 341.829,211.764 341.736 C 212.118 341.643,211.741 341.571,210.926 341.575 C 210.111 341.579,209.821 341.655,210.282 341.743 " stroke="none" fill="#d7cbec" fill-rule="evenodd"></path></g></svg>