<svg id="svg" version="1.1" xmlns="http://www.w3.org/2000/svg" xmlns:xlink="http://www.w3.org/1999/xlink" width="400" height="402.96296296296293" viewBox="0, 0, 400,402.96296296296293"><g id="svgg"><path id="path0" d="M189.074 53.180 C 188.463 53.262,186.130 53.511,183.889 53.733 C 99.038 62.133,38.442 143.449,53.725 228.406 C 68.954 313.066,153.142 366.960,237.222 345.873 C 312.338 327.034,360.479 251.827,346.646 174.928 C 335.858 114.957,289.126 67.588,228.889 55.567 C 218.984 53.590,196.198 52.224,189.074 53.180 M212.222 58.160 C 327.371 68.432,384.276 201.836,312.064 292.222 C 246.806 373.904,116.721 359.030,70.738 264.630 C 22.098 164.774,101.899 48.319,212.222 58.160 M201.784 121.142 L 198.197 130.000 205.024 130.000 C 208.779 130.000,211.852 129.886,211.852 129.746 C 211.852 129.544,205.573 112.576,205.413 112.346 C 205.390 112.312,203.756 116.271,201.784 121.142 M188.148 159.815 L 188.148 165.185 204.259 165.185 L 220.370 165.185 220.370 159.815 L 220.370 154.444 204.259 154.444 L 188.148 154.444 188.148 159.815 M188.148 240.370 L 188.148 246.296 204.259 246.296 L 220.370 246.296 220.370 240.370 L 220.370 234.444 204.259 234.444 L 188.148 234.444 188.148 240.370 M188.148 262.037 L 188.148 267.778 204.259 267.778 L 220.370 267.778 220.370 262.037 L 220.370 256.296 204.259 256.296 L 188.148 256.296 188.148 262.037 " stroke="none" fill="#6226b5" fill-rule="evenodd"></path><path id="path1" d="M194.356 58.040 C 194.817 58.128,195.484 58.125,195.838 58.032 C 196.192 57.940,195.815 57.867,195.000 57.871 C 194.185 57.875,193.895 57.951,194.356 58.040 M204.727 58.040 C 205.187 58.128,205.854 58.125,206.208 58.032 C 206.562 57.940,206.185 57.867,205.370 57.871 C 204.556 57.875,204.266 57.951,204.727 58.040 M193.077 142.307 L 188.205 154.259 204.288 154.356 L 220.370 154.452 220.370 159.819 L 220.370 165.185 204.259 165.185 L 188.148 165.185 188.148 199.815 L 188.148 234.444 204.259 234.444 L 220.370 234.444 220.370 240.370 L 220.370 246.296 204.259 246.296 L 188.148 246.296 188.148 251.111 L 188.148 255.926 204.259 255.926 L 220.370 255.926 220.396 251.019 C 220.410 248.319,220.424 225.444,220.426 200.185 L 220.430 154.259 216.201 142.407 L 211.972 130.556 204.961 130.455 L 197.950 130.355 193.077 142.307 M56.390 196.481 C 56.394 197.296,56.470 197.586,56.558 197.125 C 56.647 196.665,56.643 195.998,56.551 195.644 C 56.458 195.290,56.386 195.667,56.390 196.481 M343.797 196.481 C 343.801 197.296,343.877 197.586,343.966 197.125 C 344.054 196.665,344.051 195.998,343.958 195.644 C 343.865 195.290,343.793 195.667,343.797 196.481 M56.390 206.852 C 56.394 207.667,56.470 207.956,56.558 207.496 C 56.647 207.035,56.643 206.368,56.551 206.014 C 56.458 205.660,56.386 206.037,56.390 206.852 M343.797 206.852 C 343.801 207.667,343.877 207.956,343.966 207.496 C 344.054 207.035,344.051 206.368,343.958 206.014 C 343.865 205.660,343.793 206.037,343.797 206.852 M220.520 262.037 C 220.521 265.296,220.577 266.580,220.646 264.890 C 220.715 263.200,220.715 260.533,220.645 258.964 C 220.576 257.395,220.520 258.778,220.520 262.037 M188.148 272.407 L 188.148 276.667 204.259 276.667 L 220.370 276.667 220.370 272.407 L 220.370 268.148 204.259 268.148 L 188.148 268.148 188.148 272.407 M194.356 345.447 C 194.817 345.536,195.484 345.532,195.838 345.440 C 196.192 345.347,195.815 345.274,195.000 345.279 C 194.185 345.283,193.895 345.359,194.356 345.447 M204.727 345.447 C 205.187 345.536,205.854 345.532,206.208 345.440 C 206.562 345.347,206.185 345.274,205.370 345.279 C 204.556 345.283,204.266 345.359,204.727 345.447 " stroke="none" fill="#bc9ce3" fill-rule="evenodd"></path><path id="path2" d="M191.481 58.177 C 80.513 64.597,18.858 190.549,81.519 282.816 C 143.033 373.396,280.909 363.481,329.259 265.000 C 377.700 166.334,301.413 51.817,191.481 58.177 M208.892 121.059 C 210.588 125.613,211.975 129.613,211.974 129.947 C 211.973 130.282,213.872 135.889,216.193 142.407 L 220.413 154.259 220.436 210.926 C 220.448 242.093,220.439 269.634,220.414 272.130 L 220.370 276.667 204.259 276.667 L 188.148 276.667 188.148 215.526 L 188.148 154.385 192.548 143.581 C 196.468 133.955,203.959 115.360,204.869 112.995 C 205.370 111.694,205.509 111.974,208.892 121.059 " stroke="none" fill="#fbfbfc" fill-rule="evenodd"></path><path id="path3" d="M205.000 130.000 L 197.963 130.210 204.886 130.290 C 209.190 130.340,211.895 130.230,212.037 130.000 C 212.163 129.796,212.214 129.666,212.151 129.710 C 212.089 129.754,208.870 129.885,205.000 130.000 M196.229 256.203 C 200.775 256.262,208.108 256.262,212.525 256.203 C 216.942 256.144,213.222 256.096,204.259 256.096 C 195.296 256.096,191.683 256.144,196.229 256.203 M196.229 268.055 C 200.775 268.114,208.108 268.114,212.525 268.055 C 216.942 267.996,213.222 267.948,204.259 267.948 C 195.296 267.948,191.683 267.996,196.229 268.055 " stroke="none" fill="#a479d1" fill-rule="evenodd"></path><path id="path4" d="" stroke="none" fill="#ac94dc" fill-rule="evenodd"></path></g></svg>